<svg id="Group_2510" data-name="Group 2510" xmlns="http://www.w3.org/2000/svg" width="411.099" height="59.454" viewBox="0 0 411.099 59.454">
  <defs>
    <style>
      .cls-1 {
        fill: #0a5c21;
      }

      .cls-2 {
        fill: #feca06;
      }

      .cls-3 {
        fill: #0f1010;
      }

      .cls-4 {
        fill: #345ea6;
      }

      .cls-5 {
        fill: #d20029;
      }
    </style>
  </defs>
  <g id="Group_3" data-name="Group 3" transform="translate(70.316 8.402)">
    <g id="Group_1" data-name="Group 1" transform="translate(0.591)">
      <path id="Path_1" data-name="Path 1" class="cls-1" d="M200.544,120.087a1.4,1.4,0,0,0,.415.277,1.269,1.269,0,0,0,.507.1,1.3,1.3,0,0,0,.509-.1,1.357,1.357,0,0,0,.422-.277,1.287,1.287,0,0,0,.391-.932,1.339,1.339,0,0,0-.389-.945,1.326,1.326,0,0,0-.424-.285,1.3,1.3,0,0,0-1.017,0,1.344,1.344,0,0,0-.418.284,1.423,1.423,0,0,0-.288.419,1.273,1.273,0,0,0-.111.527,1.218,1.218,0,0,0,.113.522A1.372,1.372,0,0,0,200.544,120.087Z" transform="translate(-197.772 -117.822)"/>
      <path id="Path_2" data-name="Path 2" class="cls-1" d="M205.432,120.089a1.4,1.4,0,0,0,.421.276,1.335,1.335,0,0,0,.521.1,1.276,1.276,0,0,0,.507-.1,1.337,1.337,0,0,0,.413-.28,1.388,1.388,0,0,0,.279-.413,1.315,1.315,0,0,0,.1-.515,1.363,1.363,0,0,0-.1-.522,1.4,1.4,0,0,0-.277-.421,1.3,1.3,0,0,0-.415-.286,1.334,1.334,0,0,0-1.029,0,1.364,1.364,0,0,0-.424.285,1.387,1.387,0,0,0-.288.419,1.273,1.273,0,0,0-.111.527,1.221,1.221,0,0,0,.111.52A1.376,1.376,0,0,0,205.432,120.089Z" transform="translate(-199.731 -117.822)"/>
      <path id="Path_3" data-name="Path 3" class="cls-1" d="M217.455,143.744a1.3,1.3,0,0,0-1.859,0,1.429,1.429,0,0,0-.289.419,1.276,1.276,0,0,0-.11.526,1.223,1.223,0,0,0,.111.523,1.37,1.37,0,0,0,.289.408,1.388,1.388,0,0,0,.415.278,1.263,1.263,0,0,0,.507.1,1.292,1.292,0,0,0,.512-.1,1.384,1.384,0,0,0,.42-.277,1.286,1.286,0,0,0,.392-.932,1.316,1.316,0,0,0-.1-.522A1.356,1.356,0,0,0,217.455,143.744Z" transform="translate(-203.808 -128.06)"/>
      <path id="Path_4" data-name="Path 4" class="cls-1" d="M207.732,134.453h2.31a3.806,3.806,0,0,0,2.786-1.135,3.4,3.4,0,0,0,1.041-2.479v-5.146h-2.614v5.146a1.448,1.448,0,0,1-.44,1.09,1.061,1.061,0,0,1-.773.347h-2.31a1.844,1.844,0,0,1-1.365-.458,2.143,2.143,0,0,1-.513-1.541v-3.7a2.4,2.4,0,0,0-1.728-2.2,6.366,6.366,0,0,0-2.611-.51,5.32,5.32,0,0,0-4.006,1.549,5.375,5.375,0,0,0-1.324,3.8,4.888,4.888,0,0,0,4.583,5.218c.112.007.229.01.349.01a5.053,5.053,0,0,0,1.864-.351,4.355,4.355,0,0,0,1.423-.844,4.076,4.076,0,0,0,1.994,1.043v.162Zm-4.49-4.214a2.149,2.149,0,0,1-1.375,1.891,1.944,1.944,0,0,1-.74.147,1.2,1.2,0,0,1-.152-.01,2.042,2.042,0,0,1-.878-.258,2.934,2.934,0,0,1-1.3-2.8,3.449,3.449,0,0,1,.782-2.454,2.524,2.524,0,0,1,1.965-.731,3.391,3.391,0,0,1,1.347.249c.129.056.346.17.346.3Z" transform="translate(-196.185 -120.244)"/>
      <path id="Path_5" data-name="Path 5" class="cls-1" d="M222.349,143.746a1.287,1.287,0,0,0-.413-.286,1.35,1.35,0,0,0-1.029,0,1.329,1.329,0,0,0-.424.285,1.384,1.384,0,0,0-.287.419,1.262,1.262,0,0,0-.111.526,1.216,1.216,0,0,0,.111.521,1.34,1.34,0,0,0,.289.41,1.4,1.4,0,0,0,.422.279,1.32,1.32,0,0,0,.521.1,1.263,1.263,0,0,0,.509-.1,1.327,1.327,0,0,0,.409-.279,1.313,1.313,0,0,0,.279-.411,1.265,1.265,0,0,0,.1-.519,1.318,1.318,0,0,0-.1-.522A1.4,1.4,0,0,0,222.349,143.746Z" transform="translate(-205.768 -128.06)"/>
      <path id="Path_6" data-name="Path 6" class="cls-1" d="M228.326,133.844a5.6,5.6,0,0,1-.618,2.662,6.2,6.2,0,0,1-.663.948,14.829,14.829,0,0,1-1.238,1.258l-.2.187,2.118,1.288.116-.105a14.766,14.766,0,0,0,1.348-1.379,7.5,7.5,0,0,0,.914-1.325,7.577,7.577,0,0,0,.841-3.584v-6.875h-2.614Z" transform="translate(-207.98 -121.469)"/>
      <path id="Path_7" data-name="Path 7" class="cls-1" d="M250.192,123.381a1.4,1.4,0,0,0,.415.277,1.274,1.274,0,0,0,.506.1,1.31,1.31,0,0,0,.511-.1,1.377,1.377,0,0,0,.421-.277,1.239,1.239,0,0,0,.286-.414,1.278,1.278,0,0,0,.106-.518,1.329,1.329,0,0,0-.388-.944,1.339,1.339,0,0,0-.425-.286,1.3,1.3,0,0,0-1.018,0,1.346,1.346,0,0,0-.417.284,1.4,1.4,0,0,0-.288.42,1.3,1.3,0,0,0-.11.525,1.247,1.247,0,0,0,.111.521A1.345,1.345,0,0,0,250.192,123.381Z" transform="translate(-217.679 -119.143)"/>
      <path id="Path_8" data-name="Path 8" class="cls-1" d="M251.808,129.464a1.448,1.448,0,0,1-.44,1.09,1.062,1.062,0,0,1-.773.347h-1.566a1.523,1.523,0,0,1-1.148-.458,2.013,2.013,0,0,1-.5-1.327v-4.8h-2.624V128.9a2.164,2.164,0,0,1-.512,1.552,1.57,1.57,0,0,1-1.181.448h-2.34a1.064,1.064,0,0,1-.776-.349,1.449,1.449,0,0,1-.437-1.088v-9.032H236.89v9.032a3.4,3.4,0,0,0,1.042,2.479,3.8,3.8,0,0,0,2.786,1.135h2.62v-.021a4.182,4.182,0,0,0,2.725-1.031,4.054,4.054,0,0,0,2.523,1.018v.034h2.008a3.8,3.8,0,0,0,2.786-1.135,3.405,3.405,0,0,0,1.042-2.479v-9.032h-2.614Z" transform="translate(-212.506 -118.869)"/>
      <rect id="Rectangle_1" data-name="Rectangle 1" class="cls-1" width="2.614" height="11.97" transform="translate(43.339 1.564)"/>
      <path id="Path_9" data-name="Path 9" class="cls-1" d="M298.412,126.437a1.371,1.371,0,0,0,.42.276,1.306,1.306,0,0,0,.522.1,1.239,1.239,0,0,0,.506-.1,1.334,1.334,0,0,0,.413-.279,1.352,1.352,0,0,0,.279-.412,1.281,1.281,0,0,0,.1-.518,1.326,1.326,0,0,0-.1-.522,1.384,1.384,0,0,0-.277-.419,1.311,1.311,0,0,0-.416-.288,1.321,1.321,0,0,0-1.451.285,1.424,1.424,0,0,0-.289.419,1.286,1.286,0,0,0-.11.525,1.231,1.231,0,0,0,.111.522A1.379,1.379,0,0,0,298.412,126.437Z" transform="translate(-237.012 -120.369)"/>
      <path id="Path_10" data-name="Path 10" class="cls-1" d="M297.356,130.327a3.446,3.446,0,0,1-.781,2.453,2.515,2.515,0,0,1-1.935.722h-5.673a2.513,2.513,0,0,1-1.935-.722,3.445,3.445,0,0,1-.78-2.452,4.235,4.235,0,0,1,.067-.8v0a4.6,4.6,0,0,1,.284-.888l.09-.216-2.205-.625-.071.173a6.416,6.416,0,0,0-.38,1.219,6.984,6.984,0,0,0-.094,1.139,5.369,5.369,0,0,0,1.325,3.8,5.265,5.265,0,0,0,4.005,1.548h5.367a5.268,5.268,0,0,0,4.006-1.549,5.371,5.371,0,0,0,1.324-3.8v-3.409h-2.614Z" transform="translate(-231.372 -121.469)"/>
      <path id="Path_11" data-name="Path 11" class="cls-1" d="M293.524,126.435a1.366,1.366,0,0,0,.415.277,1.238,1.238,0,0,0,.508.1,1.311,1.311,0,0,0,.511-.1,1.389,1.389,0,0,0,.42-.277,1.315,1.315,0,0,0,.288-.415,1.3,1.3,0,0,0,.1-.517,1.355,1.355,0,0,0-.1-.522,1.347,1.347,0,0,0-.709-.707,1.309,1.309,0,0,0-1.018,0,1.334,1.334,0,0,0-.416.283,1.4,1.4,0,0,0-.288.42,1.262,1.262,0,0,0-.111.525,1.217,1.217,0,0,0,.112.522A1.349,1.349,0,0,0,293.524,126.435Z" transform="translate(-235.053 -120.368)"/>
      <path id="Path_12" data-name="Path 12" class="cls-1" d="M329.652,130.065a15.435,15.435,0,0,0-1.147-5.042,4.8,4.8,0,0,0-4.622-2.546,6.4,6.4,0,0,0-2.145.35,4.818,4.818,0,0,0-1.728,1.067,4.052,4.052,0,0,0-.646.786v0a6.736,6.736,0,0,0-.54,1.141l-.088.228,2.553.525.062-.169a3.231,3.231,0,0,1,.328-.7A2.271,2.271,0,0,1,322,125.3a2.1,2.1,0,0,1,.782-.475,3.269,3.269,0,0,1,1.1-.171,2.428,2.428,0,0,1,2.385,1.672,16.357,16.357,0,0,1,.783,3.939c.031.28.055.5.073.648l-7.94-.009h-2.621a1.064,1.064,0,0,1-.775-.349,1.447,1.447,0,0,1-.438-1.088v-9.032h-2.614v9.032a3.4,3.4,0,0,0,1.042,2.479,3.8,3.8,0,0,0,2.786,1.135h11.953q.1,0,.214-.011a1.382,1.382,0,0,0,.837-.352.962.962,0,0,0,.332-.725.934.934,0,0,0-.013-.157C329.826,131.479,329.747,130.884,329.652,130.065Z" transform="translate(-242.916 -118.869)"/>
      <path id="Path_13" data-name="Path 13" class="cls-1" d="M331.633,143.846a1.317,1.317,0,0,0-.422-.285,1.3,1.3,0,0,0-1.02,0,1.328,1.328,0,0,0-.416.283,1.4,1.4,0,0,0-.288.42,1.263,1.263,0,0,0-.111.525,1.236,1.236,0,0,0,.111.522,1.364,1.364,0,0,0,.289.409,1.394,1.394,0,0,0,.414.276,1.25,1.25,0,0,0,.509.1,1.292,1.292,0,0,0,.511-.1,1.381,1.381,0,0,0,.419-.277,1.271,1.271,0,0,0,.289-.416,1.31,1.31,0,0,0,.1-.516,1.324,1.324,0,0,0-.1-.522A1.3,1.3,0,0,0,331.633,143.846Z" transform="translate(-249.588 -128.1)"/>
      <rect id="Rectangle_2" data-name="Rectangle 2" class="cls-1" width="2.615" height="11.97" transform="translate(88.232 1.564)"/>
      <path id="Path_14" data-name="Path 14" class="cls-1" d="M350.8,133.844a5.6,5.6,0,0,1-.618,2.662,6.2,6.2,0,0,1-.663.948,14.88,14.88,0,0,1-1.239,1.258l-.2.187,2.119,1.288.116-.105a14.768,14.768,0,0,0,1.347-1.379,7.15,7.15,0,0,0,1.756-4.909v-6.875H350.8Z" transform="translate(-257.086 -121.469)"/>
      <path id="Path_15" data-name="Path 15" class="cls-1" d="M370.191,129.464a1.448,1.448,0,0,1-.44,1.09,1.062,1.062,0,0,1-.773.347h-2.506c-.025-.2-.058-.482-.1-.836a15.431,15.431,0,0,0-1.147-5.042c-.887-1.689-2.511-2.546-4.827-2.546h-.208v2.176h.208a2.57,2.57,0,0,1,2.59,1.672,16.414,16.414,0,0,1,.783,3.939q.045.419.072.647l-3.025-.01a1.882,1.882,0,0,1-.706-.116,3.324,3.324,0,0,1-.869-.645l-.215-.2-1.041,2.375.907.391a4.849,4.849,0,0,0,1.924.374h8.158a3.8,3.8,0,0,0,2.786-1.135,3.406,3.406,0,0,0,1.042-2.479v-9.032h-2.614Z" transform="translate(-261.06 -118.869)"/>
      <rect id="Rectangle_3" data-name="Rectangle 3" class="cls-1" width="2.614" height="11.97" transform="translate(113.169 1.564)"/>
      <path id="Path_16" data-name="Path 16" class="cls-1" d="M399.78,124.373a6.362,6.362,0,0,0-2.611-.51,4.954,4.954,0,0,0-5.329,5.351,5.06,5.06,0,0,0,1.375,3.661,5.219,5.219,0,0,0,3.943,1.578H398.7a3.8,3.8,0,0,1-.323.827,6.311,6.311,0,0,1-.662.948,14.93,14.93,0,0,1-1.229,1.248l-.19.174,1.883,1.33.124-.115a15.482,15.482,0,0,0,1.347-1.388,7.138,7.138,0,0,0,.9-1.3,6.874,6.874,0,0,0,.96-3.6v-5.991A2.4,2.4,0,0,0,399.78,124.373Zm-.886,2.2v5.711h-1.322l-.208-.01a2.769,2.769,0,0,1-2.11-.765,3.159,3.159,0,0,1-.8-2.3,3.445,3.445,0,0,1,.781-2.454,2.556,2.556,0,0,1,1.965-.731,3.4,3.4,0,0,1,1.348.249C398.678,126.333,398.894,126.447,398.894,126.577Z" transform="translate(-274.633 -120.244)"/>
      <path id="Path_17" data-name="Path 17" class="cls-1" d="M432.44,130.327a3.447,3.447,0,0,1-.781,2.453,2.515,2.515,0,0,1-1.935.722h-5.673a2.513,2.513,0,0,1-1.935-.722,3.445,3.445,0,0,1-.78-2.452,4.238,4.238,0,0,1,.067-.8v0a4.594,4.594,0,0,1,.284-.888l.09-.216-2.205-.625-.071.173a6.41,6.41,0,0,0-.38,1.219,6.974,6.974,0,0,0-.094,1.139,5.369,5.369,0,0,0,1.325,3.8,5.265,5.265,0,0,0,4.005,1.548h5.367a5.268,5.268,0,0,0,4.006-1.549,5.371,5.371,0,0,0,1.324-3.8v-3.409H432.44Z" transform="translate(-285.534 -121.469)"/>
      <path id="Path_18" data-name="Path 18" class="cls-1" d="M428.608,126.435a1.355,1.355,0,0,0,.415.277,1.238,1.238,0,0,0,.508.1,1.311,1.311,0,0,0,.511-.1,1.389,1.389,0,0,0,.42-.277,1.261,1.261,0,0,0,.391-.932,1.374,1.374,0,0,0-.1-.522,1.347,1.347,0,0,0-.709-.707,1.309,1.309,0,0,0-1.018,0,1.331,1.331,0,0,0-.416.283,1.376,1.376,0,0,0-.288.42,1.264,1.264,0,0,0-.111.525,1.222,1.222,0,0,0,.111.522A1.349,1.349,0,0,0,428.608,126.435Z" transform="translate(-289.215 -120.368)"/>
      <path id="Path_19" data-name="Path 19" class="cls-1" d="M433.5,126.436a1.373,1.373,0,0,0,.419.276,1.31,1.31,0,0,0,.523.1,1.238,1.238,0,0,0,.506-.1,1.3,1.3,0,0,0,.691-.689,1.267,1.267,0,0,0,.1-.519,1.3,1.3,0,0,0-.1-.521,1.367,1.367,0,0,0-.277-.421,1.312,1.312,0,0,0-.416-.288,1.32,1.32,0,0,0-1.451.285,1.425,1.425,0,0,0-.289.419,1.286,1.286,0,0,0-.11.525,1.23,1.23,0,0,0,.112.522A1.392,1.392,0,0,0,433.5,126.436Z" transform="translate(-291.174 -120.368)"/>
      <rect id="Rectangle_4" data-name="Rectangle 4" class="cls-1" width="2.614" height="11.97" transform="translate(150.741 1.564)"/>
      <path id="Path_20" data-name="Path 20" class="cls-1" d="M455.145,133.844a5.6,5.6,0,0,1-.618,2.662,6.226,6.226,0,0,1-.662.948,15.072,15.072,0,0,1-1.239,1.258l-.2.187,2.118,1.288.116-.105A14.71,14.71,0,0,0,456,138.7a7.142,7.142,0,0,0,1.756-4.909v-6.875h-2.615Z" transform="translate(-298.924 -121.469)"/>
      <path id="Path_21" data-name="Path 21" class="cls-1" d="M481.442,143.747a1.294,1.294,0,0,0-.416-.287,1.322,1.322,0,0,0-1.452.284,1.432,1.432,0,0,0-.288.419,1.271,1.271,0,0,0-.111.526,1.222,1.222,0,0,0,.113.523,1.361,1.361,0,0,0,.289.409,1.411,1.411,0,0,0,.421.277,1.325,1.325,0,0,0,.521.1,1.257,1.257,0,0,0,.509-.1,1.324,1.324,0,0,0,.41-.279,1.338,1.338,0,0,0,.28-.412,1.308,1.308,0,0,0,.1-.518,1.346,1.346,0,0,0-.1-.522A1.4,1.4,0,0,0,481.442,143.747Z" transform="translate(-309.65 -128.061)"/>
      <path id="Path_22" data-name="Path 22" class="cls-1" d="M476.547,143.744a1.314,1.314,0,0,0-1.441-.285,1.348,1.348,0,0,0-.419.285,1.443,1.443,0,0,0-.287.42,1.274,1.274,0,0,0-.11.524,1.237,1.237,0,0,0,.111.523,1.39,1.39,0,0,0,.289.409,1.431,1.431,0,0,0,.415.277,1.263,1.263,0,0,0,.507.1,1.29,1.29,0,0,0,.509-.1,1.337,1.337,0,0,0,.421-.277,1.242,1.242,0,0,0,.286-.413,1.284,1.284,0,0,0,.105-.519,1.324,1.324,0,0,0-.388-.944Z" transform="translate(-307.692 -128.06)"/>
      <path id="Path_23" data-name="Path 23" class="cls-1" d="M505.146,129.464a1.446,1.446,0,0,1-.44,1.09,1.061,1.061,0,0,1-.773.347h-2.687a1.063,1.063,0,0,1-.775-.349,1.447,1.447,0,0,1-.438-1.088v-9.032h-2.615v9.032a1.449,1.449,0,0,1-.44,1.09,1.061,1.061,0,0,1-.773.347h-1.77a1.531,1.531,0,0,1-1.148-.456,2.027,2.027,0,0,1-.5-1.329v-4.8h-2.624V128.9a2.161,2.161,0,0,1-.513,1.552,1.569,1.569,0,0,1-1.181.448,1.527,1.527,0,0,1-1.149-.458,2.14,2.14,0,0,1-.515-1.541v-4.585h-2.614V128.9a2.107,2.107,0,0,1-.522,1.552,1.571,1.571,0,0,1-1.181.448,1.524,1.524,0,0,1-1.148-.458,2.111,2.111,0,0,1-.514-1.541v-4.585h-2.616V128.9a2.155,2.155,0,0,1-.511,1.55,1.6,1.6,0,0,1-1.192.449h-.654a1.524,1.524,0,0,1-1.148-.456,2.018,2.018,0,0,1-.5-1.329v-4.8h-2.625V128.9a2.164,2.164,0,0,1-.512,1.552,1.565,1.565,0,0,1-1.18.448h-2.34a1.065,1.065,0,0,1-.776-.349,1.447,1.447,0,0,1-.438-1.088v-9.032H463.71v9.032a3.4,3.4,0,0,0,1.042,2.479,3.8,3.8,0,0,0,2.786,1.135h2.62v-.021a4.181,4.181,0,0,0,2.725-1.031,4.049,4.049,0,0,0,2.522,1.018v.034h1.541v-.034a4.16,4.16,0,0,0,2.572-1.02,4.2,4.2,0,0,0,2.966,1.053,4.314,4.314,0,0,0,3.015-1.053,4.191,4.191,0,0,0,2.966,1.053,4.276,4.276,0,0,0,3-1.052,4.127,4.127,0,0,0,2.728,1.034v.018H496.2a3.637,3.637,0,0,0,2.5-.856,3.817,3.817,0,0,0,2.544.856h2.687a3.805,3.805,0,0,0,2.786-1.135,3.408,3.408,0,0,0,1.042-2.479v-9.032h-2.614Z" transform="translate(-303.45 -118.869)"/>
      <path id="Path_24" data-name="Path 24" class="cls-1" d="M555.916,147.242a1.334,1.334,0,0,0-.425-.286,1.3,1.3,0,0,0-1.018,0,1.322,1.322,0,0,0-.415.284,1.415,1.415,0,0,0-.29.419,1.269,1.269,0,0,0-.111.527,1.241,1.241,0,0,0,.111.522,1.349,1.349,0,0,0,.292.41,1.386,1.386,0,0,0,.413.277,1.267,1.267,0,0,0,.507.1,1.3,1.3,0,0,0,.512-.1,1.388,1.388,0,0,0,.42-.277,1.317,1.317,0,0,0,.286-.414,1.3,1.3,0,0,0,.1-.518,1.329,1.329,0,0,0-.1-.522A1.346,1.346,0,0,0,555.916,147.242Z" transform="translate(-339.514 -129.462)"/>
      <path id="Path_25" data-name="Path 25" class="cls-1" d="M560.811,147.245a1.28,1.28,0,0,0-.415-.288,1.332,1.332,0,0,0-1.028,0,1.3,1.3,0,0,0-.425.286,1.406,1.406,0,0,0-.288.419,1.294,1.294,0,0,0-.11.526,1.245,1.245,0,0,0,.111.521,1.338,1.338,0,0,0,.29.412,1.369,1.369,0,0,0,.421.277,1.327,1.327,0,0,0,.521.1,1.267,1.267,0,0,0,.508-.1,1.34,1.34,0,0,0,.411-.279,1.317,1.317,0,0,0,.277-.411,1.278,1.278,0,0,0,.106-.518,1.315,1.315,0,0,0-.1-.522A1.383,1.383,0,0,0,560.811,147.245Z" transform="translate(-341.474 -129.462)"/>
      <path id="Path_26" data-name="Path 26" class="cls-1" d="M558.68,130.247a8.874,8.874,0,0,0-2.753-.983l-.047-.005a2.818,2.818,0,0,1-1.069-.483,1.487,1.487,0,0,1-.384-1.1,1.515,1.515,0,0,1,.55-1.221,2.22,2.22,0,0,1,1.972-.353,2.55,2.55,0,0,1,.613.226l.145.072,1.54-1.779L559,124.5a6.819,6.819,0,0,0-1.4-.518,5.906,5.906,0,0,0-1.167-.117h-.092a4.86,4.86,0,0,0-3.242,1.073,3.455,3.455,0,0,0-1.29,2.737,3.332,3.332,0,0,0,1.081,2.575,5.46,5.46,0,0,0,2.252,1.092l.088.02a6.082,6.082,0,0,1,1.613.545,1.364,1.364,0,0,1,.631,1.236v.071a1.769,1.769,0,0,1-.054.427,1.622,1.622,0,0,1-1.064,1.058,6.33,6.33,0,0,1-2.293.373,8.434,8.434,0,0,1-2.083-.228,4.172,4.172,0,0,1-2.077-1.156,2.711,2.711,0,0,1-.691-1.9,7.134,7.134,0,0,1,.078-1.083v0a6.431,6.431,0,0,1,.278-1.138l.072-.22-2.236-.486-.061.174a7.1,7.1,0,0,0-.349,1.413,10.845,10.845,0,0,0-.082,1.376,4.594,4.594,0,0,0,1.2,3.176,6.7,6.7,0,0,0,3.373,1.912,10.021,10.021,0,0,0,2.59.334,9.448,9.448,0,0,0,3.453-.588,3.77,3.77,0,0,0,2.441-2.539,3.616,3.616,0,0,0,.121-.966A3.266,3.266,0,0,0,558.68,130.247Z" transform="translate(-336.811 -120.244)"/>
      <path id="Path_27" data-name="Path 27" class="cls-1" d="M578.375,131.434a15.436,15.436,0,0,0-1.147-5.042c-.888-1.689-2.512-2.546-4.827-2.546h-.208v2.176h.208a2.567,2.567,0,0,1,2.589,1.672,16.365,16.365,0,0,1,.783,3.941c.031.279.056.494.074.646l-3.026-.01a1.878,1.878,0,0,1-.7-.116,3.349,3.349,0,0,1-.87-.645l-.215-.2-1.042,2.376.91.39a4.827,4.827,0,0,0,1.922.374h4.417q.1,0,.214-.011a1.382,1.382,0,0,0,.837-.352.965.965,0,0,0,.333-.725.936.936,0,0,0-.013-.157C578.549,132.847,578.471,132.252,578.375,131.434Z" transform="translate(-346.063 -120.237)"/>
      <path id="Path_28" data-name="Path 28" class="cls-1" d="M630.464,129.464a1.446,1.446,0,0,1-.44,1.09,1.059,1.059,0,0,1-.773.347h-1.77a1.527,1.527,0,0,1-1.148-.458,2.018,2.018,0,0,1-.5-1.327v-4.8H623.2V128.9a2.161,2.161,0,0,1-.513,1.552,1.564,1.564,0,0,1-1.179.448,1.524,1.524,0,0,1-1.149-.458,2.138,2.138,0,0,1-.515-1.541v-4.585h-2.615V128.9a2.1,2.1,0,0,1-.522,1.552,1.565,1.565,0,0,1-1.18.448,1.523,1.523,0,0,1-1.149-.458,2.109,2.109,0,0,1-.514-1.541v-4.585h-2.615V128.9a2.158,2.158,0,0,1-.512,1.55,1.6,1.6,0,0,1-1.191.449h-2.337a6.667,6.667,0,0,0,1.28-2.639,6.913,6.913,0,0,0,.273-1.815,3.78,3.78,0,0,0-.749-2.376,3.962,3.962,0,0,0-2.153-1.372,6.341,6.341,0,0,0-1.724-.223h-1.472a6.3,6.3,0,0,0-1.711.222,3.951,3.951,0,0,0-2.165,1.371,3.783,3.783,0,0,0-.749,2.378,6.888,6.888,0,0,0,.274,1.815A6.806,6.806,0,0,0,599.6,130.9h-3.1v-5.7a2.4,2.4,0,0,0-1.728-2.2,6.356,6.356,0,0,0-2.61-.51,4.954,4.954,0,0,0-5.33,5.351A5.058,5.058,0,0,0,588.2,131.5a5.22,5.22,0,0,0,3.944,1.578h1.541a3.761,3.761,0,0,1-.323.827,6.16,6.16,0,0,1-.662.947,14.633,14.633,0,0,1-1.23,1.248l-.19.174,1.885,1.331.124-.115a15.431,15.431,0,0,0,1.346-1.388,7.193,7.193,0,0,0,.9-1.3,6.2,6.2,0,0,0,.723-1.719h13.528v-.018a4.467,4.467,0,0,1,5.742.018,4.311,4.311,0,0,0,3.015-1.053,4.192,4.192,0,0,0,2.967,1.053,4.275,4.275,0,0,0,3-1.052,4.121,4.121,0,0,0,2.728,1.034v.018h2.007a3.8,3.8,0,0,0,2.786-1.135,3.408,3.408,0,0,0,1.041-2.479v-9.032h-2.614Zm-24.313-3.016a5.257,5.257,0,0,1-.2,1.335,4.858,4.858,0,0,1-1.647,2.572,3.884,3.884,0,0,1-.9.551,4.038,4.038,0,0,1-.894-.551,4.863,4.863,0,0,1-1.645-2.569,5.326,5.326,0,0,1-.2-1.337,1.927,1.927,0,0,1,.335-1.2,1.421,1.421,0,0,1,.779-.489,3.383,3.383,0,0,1,.885-.1h1.472a3.577,3.577,0,0,1,.9.1,1.429,1.429,0,0,1,.78.49A1.935,1.935,0,0,1,606.151,126.448ZM593.883,125.2v5.711h-1.32l-.208-.01a2.768,2.768,0,0,1-2.11-.765,3.158,3.158,0,0,1-.8-2.3,3.445,3.445,0,0,1,.782-2.454,2.554,2.554,0,0,1,1.964-.731,3.4,3.4,0,0,1,1.348.249C593.666,124.958,593.883,125.072,593.883,125.2Z" transform="translate(-352.814 -118.869)"/>
      <rect id="Rectangle_5" data-name="Rectangle 5" class="cls-1" width="2.615" height="11.97" transform="translate(281.689 1.564)"/>
      <path id="Path_29" data-name="Path 29" class="cls-1" d="M688.729,131.434a15.449,15.449,0,0,0-1.147-5.042c-.888-1.689-2.512-2.546-4.826-2.546h-.209v2.176h.209a2.567,2.567,0,0,1,2.589,1.672,16.317,16.317,0,0,1,.782,3.941c.031.279.056.494.074.646l-3.026-.01a1.88,1.88,0,0,1-.706-.116,3.352,3.352,0,0,1-.87-.645l-.215-.2-1.041,2.376.909.39a4.83,4.83,0,0,0,1.922.374h4.416c.068,0,.14,0,.214-.011a1.384,1.384,0,0,0,.837-.352.964.964,0,0,0,.332-.725.935.935,0,0,0-.013-.157C688.9,132.847,688.825,132.252,688.729,131.434Z" transform="translate(-390.309 -120.237)"/>
      <path id="Path_30" data-name="Path 30" class="cls-1" d="M734.114,122.853a1.421,1.421,0,0,0,.422.277,1.331,1.331,0,0,0,.519.1,1.273,1.273,0,0,0,.509-.1,1.343,1.343,0,0,0,.412-.279,1.3,1.3,0,0,0,.277-.411,1.271,1.271,0,0,0,.105-.518,1.3,1.3,0,0,0-.1-.518,1.35,1.35,0,0,0-.277-.424,1.293,1.293,0,0,0-.415-.286,1.327,1.327,0,0,0-1.453.285,1.427,1.427,0,0,0-.287.419,1.281,1.281,0,0,0-.11.525,1.235,1.235,0,0,0,.111.522A1.363,1.363,0,0,0,734.114,122.853Z" transform="translate(-411.708 -118.931)"/>
      <path id="Path_31" data-name="Path 31" class="cls-1" d="M729.227,122.853a1.42,1.42,0,0,0,.415.276,1.268,1.268,0,0,0,.507.1,1.307,1.307,0,0,0,.512-.1,1.388,1.388,0,0,0,.422-.277,1.292,1.292,0,0,0,.285-.413,1.265,1.265,0,0,0,.1-.518,1.314,1.314,0,0,0-.1-.522,1.356,1.356,0,0,0-.284-.423,1.33,1.33,0,0,0-.424-.285,1.3,1.3,0,0,0-1.019,0,1.343,1.343,0,0,0-.416.284,1.411,1.411,0,0,0-.289.421,1.286,1.286,0,0,0-.109.524,1.247,1.247,0,0,0,.109.521A1.361,1.361,0,0,0,729.227,122.853Z" transform="translate(-409.748 -118.931)"/>
      <path id="Path_32" data-name="Path 32" class="cls-1" d="M719.348,129.464a1.448,1.448,0,0,1-.44,1.09,1.062,1.062,0,0,1-.773.347H714.2c-.025-.2-.059-.482-.1-.836a15.434,15.434,0,0,0-1.147-5.042,4.8,4.8,0,0,0-4.623-2.546,6.4,6.4,0,0,0-2.146.35,4.83,4.83,0,0,0-1.729,1.067,4.113,4.113,0,0,0-.646.788,6.688,6.688,0,0,0-.54,1.141l-.087.228,2.553.525.062-.169a3.274,3.274,0,0,1,.328-.7,2.346,2.346,0,0,1,.327-.41,2.1,2.1,0,0,1,.783-.475,3.261,3.261,0,0,1,1.1-.171,2.43,2.43,0,0,1,2.385,1.672,16.407,16.407,0,0,1,.783,3.939c.031.28.055.5.073.648l-7.94-.009h-2.62a1.063,1.063,0,0,1-.775-.349,1.447,1.447,0,0,1-.438-1.088v-9.032h-2.614v9.032a3.4,3.4,0,0,0,1.042,2.479,3.8,3.8,0,0,0,2.786,1.135h17.125a3.806,3.806,0,0,0,2.786-1.135,3.4,3.4,0,0,0,1.041-2.479v-5.146h-2.614Z" transform="translate(-397.061 -118.869)"/>
      <path id="Path_33" data-name="Path 33" class="cls-1" d="M747.5,129.464a1.513,1.513,0,0,1-.377,1.038,1.079,1.079,0,0,1-.836.4h-2.813a3.45,3.45,0,0,0,.251-1.438v-9.032H741.1v9.032a1.464,1.464,0,0,1-.43,1.09,1.323,1.323,0,0,1-.988.347h-.208v2.176h6.812a3.835,3.835,0,0,0,2.7-1.048,3.411,3.411,0,0,0,1.128-2.565v-9.032H747.5Z" transform="translate(-414.018 -118.869)"/>
      <rect id="Rectangle_6" data-name="Rectangle 6" class="cls-1" width="2.615" height="11.97" transform="translate(337.522 1.564)"/>
    </g>
    <g id="Group_2" data-name="Group 2" transform="translate(0 25.229)">
      <path id="Path_34" data-name="Path 34" class="cls-1" d="M201.888,167l-1.728-.724c-1.078-.44-1.738-.749-1.738-1.508s.654-1.228,1.707-1.228a3.743,3.743,0,0,1,2.52,1l.163.138,1.366-1.688-.131-.132a5.539,5.539,0,0,0-3.918-1.622c-2.46,0-4.315,1.572-4.315,3.657a3.666,3.666,0,0,0,2.6,3.434l1.714.743c1.17.5,1.732.771,1.732,1.59,0,.871-.7,1.371-1.924,1.371a4.608,4.608,0,0,1-3.043-1.338l-.16-.152-1.532,1.8.138.135a6.534,6.534,0,0,0,4.552,1.852c2.708,0,4.6-1.581,4.6-3.844A3.631,3.631,0,0,0,201.888,167Z" transform="translate(-195.199 -160.457)"/>
      <path id="Path_35" data-name="Path 35" class="cls-1" d="M216.936,166.318a7.292,7.292,0,0,0-3.881,1.236l-.167.1.993,1.8.186-.114a4.965,4.965,0,0,1,2.471-.875c.892,0,1.368.464,1.45,1.417-3.726.431-5.391,1.539-5.391,3.582a2.786,2.786,0,0,0,2.923,2.9,4.418,4.418,0,0,0,2.755-1.1l.143.877h2.151V170.5C220.57,167.764,219.313,166.318,216.936,166.318ZM218,171.649v1.734a2.628,2.628,0,0,1-1.789.879c-.508,0-1.115-.166-1.115-.958C215.094,172.72,215.431,172.011,218,171.649Z" transform="translate(-202.175 -162.495)"/>
      <path id="Path_36" data-name="Path 36" class="cls-1" d="M234.971,173.12c-.667.847-1.133,1.135-1.826,1.135-.754,0-1.221-.313-1.221-1.871v-5.692h-2.571v5.968c0,2.56,1.021,3.859,3.036,3.859a3.736,3.736,0,0,0,2.857-1.362l.137,1.138h2.159v-9.6h-2.571Z" transform="translate(-208.893 -162.645)"/>
      <path id="Path_37" data-name="Path 37" class="cls-1" d="M252.162,163.523l.056,1.008a3.368,3.368,0,0,0-2.174-.757c-1.987,0-4.1,1.764-4.1,5.033,0,3.1,1.525,5.018,3.978,5.018a3.913,3.913,0,0,0,2.521-1.058l.138.833h2.15V159.975h-2.571Zm0,3.1v4.106a2.186,2.186,0,0,1-1.707.9c-1.635,0-1.879-1.782-1.879-2.844,0-1.658.791-2.814,1.924-2.814A2.492,2.492,0,0,1,252.162,166.621Z" transform="translate(-215.546 -159.952)"/>
      <rect id="Rectangle_7" data-name="Rectangle 7" class="cls-1" width="2.571" height="9.603" transform="translate(41.506 4.047)"/>
      <path id="Path_38" data-name="Path 38" class="cls-1" d="M265.614,159.937a1.438,1.438,0,0,0-1.54,1.428,1.544,1.544,0,0,0,3.08,0A1.438,1.438,0,0,0,265.614,159.937Z" transform="translate(-222.815 -159.937)"/>
      <path id="Path_39" data-name="Path 39" class="cls-1" d="M283.395,161.61h-2.846l-4.033,12.375-.089.273h2.658l.956-3.314h3.788l.948,3.314h2.741l-4.077-12.5Zm-2.744,7.216L281,167.6c.347-1.153.667-2.37.928-3.4l.037.137c.289,1.09.588,2.216.9,3.264l.352,1.228Z" transform="translate(-227.767 -160.608)"/>
      <path id="Path_40" data-name="Path 40" class="cls-1" d="M301.639,173.12c-.666.847-1.133,1.135-1.826,1.135-.753,0-1.22-.313-1.22-1.871v-5.692h-2.571v5.968c0,2.56,1.021,3.859,3.036,3.859a3.734,3.734,0,0,0,2.856-1.362l.138,1.138h2.158v-9.6h-2.571Z" transform="translate(-235.624 -162.645)"/>
      <path id="Path_41" data-name="Path 41" class="cls-1" d="M317.757,172.517a2.635,2.635,0,0,1-.882.2c-.509,0-1.093-.159-1.093-1.4v-4.164h2.341v-2.13h-2.341v-2.506H313.6l-.255,2.518-1.441.1v2.018h1.31v4.168c0,2.309,1.075,3.53,3.11,3.53a6.157,6.157,0,0,0,1.943-.347l.18-.059-.464-2.006Z" transform="translate(-241.991 -160.968)"/>
      <path id="Path_42" data-name="Path 42" class="cls-1" d="M327.885,166.318c-2.275,0-4.577,1.729-4.577,5.033a4.6,4.6,0,1,0,9.153,0C332.461,168.047,330.159,166.318,327.885,166.318Zm0,7.877c-1.2,0-1.946-1.09-1.946-2.844s.746-2.859,1.946-2.859,1.946,1.1,1.946,2.859S329.085,174.195,327.885,174.195Z" transform="translate(-246.564 -162.495)"/>
      <path id="Path_43" data-name="Path 43" class="cls-1" d="M351.964,166.318a4.142,4.142,0,0,0-2.893,1.489,2.661,2.661,0,0,0-2.6-1.489,3.924,3.924,0,0,0-2.721,1.291l-.14-1.067h-2.157v9.6h2.571V169.6a2.619,2.619,0,0,1,1.715-1.019c.724,0,1.206.319,1.206,1.871v5.692h2.57V169.6a2.584,2.584,0,0,1,1.714-1.019c.724,0,1.206.319,1.206,1.871v5.692h2.571v-5.968C355.008,166.987,353.353,166.318,351.964,166.318Z" transform="translate(-253.841 -162.495)"/>
      <path id="Path_44" data-name="Path 44" class="cls-1" d="M371.333,166.318c-2.274,0-4.577,1.729-4.577,5.033a4.6,4.6,0,1,0,9.153,0C375.91,168.047,373.607,166.318,371.333,166.318Zm0,7.877c-1.2,0-1.946-1.09-1.946-2.844s.746-2.859,1.946-2.859,1.946,1.1,1.946,2.859S372.533,174.195,371.333,174.195Z" transform="translate(-263.985 -162.495)"/>
      <path id="Path_45" data-name="Path 45" class="cls-1" d="M389.669,163.775a4.132,4.132,0,0,0-2.425.9l.041-1.075v-3.626h-2.571V173.6h2.078l.158-.811a3.737,3.737,0,0,0,2.424,1.036c2.051,0,4.127-1.779,4.127-5.179C393.5,165.642,392.033,163.775,389.669,163.775Zm-2.384,3.108a2.612,2.612,0,0,1,1.8-.911c1.2,0,1.789.886,1.789,2.71s-.748,2.949-1.954,2.949a2.578,2.578,0,0,1-1.632-.651Z" transform="translate(-271.185 -159.952)"/>
      <path id="Path_46" data-name="Path 46" class="cls-1" d="M403.414,159.937a1.438,1.438,0,0,0-1.54,1.428,1.544,1.544,0,0,0,3.08,0A1.438,1.438,0,0,0,403.414,159.937Z" transform="translate(-278.066 -159.937)"/>
      <rect id="Rectangle_8" data-name="Rectangle 8" class="cls-1" width="2.571" height="9.603" transform="translate(124.055 4.047)"/>
      <path id="Path_47" data-name="Path 47" class="cls-1" d="M413.581,171.619a1.032,1.032,0,0,1-.29.033c-.158,0-.255-.2-.255-.51V159.975h-2.571V171.03c0,1.856.772,2.8,2.3,2.8a3.232,3.232,0,0,0,1.214-.2l.156-.062-.334-1.992Z" transform="translate(-281.51 -159.952)"/>
      <path id="Path_48" data-name="Path 48" class="cls-1" d="M422.354,166.318a4.7,4.7,0,0,0-4.442,5.033c0,3,1.9,5.018,4.734,5.018a5.916,5.916,0,0,0,3.266-1.031l.158-.105-.93-1.7-.187.116a3.685,3.685,0,0,1-2.023.634,2.377,2.377,0,0,1-2.468-2.142h5.76l.035-.164a5.8,5.8,0,0,0,.1-1.091C426.356,168.068,424.823,166.318,422.354,166.318Zm1.717,3.942h-3.627A2.046,2.046,0,0,1,422.4,168.4C423.684,168.4,424.028,169.368,424.071,170.26Z" transform="translate(-284.496 -162.495)"/>
      <path id="Path_49" data-name="Path 49" class="cls-1" d="M449,171.339a13.814,13.814,0,0,0,1.991-4.136l.08-.268h-2.413l-.041.154a9.286,9.286,0,0,1-1.4,3.015,15.164,15.164,0,0,1-2.451-2.461c1.283-.905,2.58-1.963,2.58-3.6a2.682,2.682,0,0,0-2.916-2.8,3.168,3.168,0,0,0-3.291,3.26,6.058,6.058,0,0,0,.715,2.632,4.238,4.238,0,0,0-2.256,3.555c0,2.149,1.692,3.649,4.113,3.649a5.84,5.84,0,0,0,3.7-1.269,9.709,9.709,0,0,0,2.91,1.264l.19.044.661-2.16-.22-.048A7.126,7.126,0,0,1,449,171.339Zm-3.412.371a3.019,3.019,0,0,1-1.619.536,1.727,1.727,0,0,1-1.9-1.692,2.229,2.229,0,0,1,.921-1.6A17.427,17.427,0,0,0,445.585,171.711Zm-1.133-8.593c.65,0,.787.509.787.936,0,.787-.649,1.348-1.52,1.909a3.7,3.7,0,0,1-.364-1.483C443.355,163.665,443.8,163.118,444.452,163.118Z" transform="translate(-293.188 -160.457)"/>
      <path id="Path_50" data-name="Path 50" class="cls-1" d="M473.747,167.727c-.146.42-.28.853-.415,1.288-.065.209-.13.419-.2.627q-.1-.293-.189-.586c-.143-.449-.286-.9-.437-1.331L470.3,161.61h-2.809v12.647h2.369v-5.8c0-.71-.068-1.613-.143-2.466l.51,1.49,2.069,5.632h1.577l2.064-5.635.525-1.513c-.076.861-.145,1.774-.145,2.491v5.8h2.406V161.61h-2.809Z" transform="translate(-304.374 -160.608)"/>
      <path id="Path_51" data-name="Path 51" class="cls-1" d="M494,166.318c-2.274,0-4.577,1.729-4.577,5.033a4.6,4.6,0,1,0,9.153,0C498.572,168.047,496.27,166.318,494,166.318Zm0,7.877c-1.2,0-1.946-1.09-1.946-2.844s.746-2.859,1.946-2.859,1.946,1.1,1.946,2.859S495.2,174.195,494,174.195Z" transform="translate(-313.167 -162.495)"/>
      <path id="Path_52" data-name="Path 52" class="cls-1" d="M511.086,172.517a2.635,2.635,0,0,1-.882.2c-.509,0-1.093-.159-1.093-1.4v-4.164h2.341v-2.13h-2.341v-2.506h-2.185l-.255,2.518-1.441.1v2.018h1.31v4.168c0,2.309,1.075,3.53,3.11,3.53a6.158,6.158,0,0,0,1.943-.347l.18-.059-.464-2.006Z" transform="translate(-319.507 -160.968)"/>
      <path id="Path_53" data-name="Path 53" class="cls-1" d="M521.214,166.318c-2.275,0-4.577,1.729-4.577,5.033a4.6,4.6,0,1,0,9.153,0C525.79,168.047,523.488,166.318,521.214,166.318Zm0,7.877c-1.2,0-1.946-1.09-1.946-2.844s.746-2.859,1.946-2.859,1.946,1.1,1.946,2.859S522.414,174.195,521.214,174.195Z" transform="translate(-324.08 -162.495)"/>
      <path id="Path_54" data-name="Path 54" class="cls-1" d="M539.592,166.318a3.162,3.162,0,0,0-2.517,1.521l-.13-1.3h-2.163v9.6h2.571v-5.771c.633-1.561,1.58-1.731,1.961-1.731a2.911,2.911,0,0,1,.886.141l.217.061.45-2.252-.15-.07A2.552,2.552,0,0,0,539.592,166.318Z" transform="translate(-331.355 -162.495)"/>
      <path id="Path_55" data-name="Path 55" class="cls-1" d="M551.727,173.451a2.848,2.848,0,0,1-1.765.744c-1.333,0-2.23-1.144-2.23-2.844s.924-2.859,2.3-2.859a2.033,2.033,0,0,1,1.389.622l.17.148,1.3-1.733-.145-.128a4.13,4.13,0,0,0-2.823-1.084,4.766,4.766,0,0,0-4.816,5.033c0,3,1.863,5.018,4.636,5.018a4.725,4.725,0,0,0,3.138-1.181l.131-.116-1.094-1.776Z" transform="translate(-335.493 -162.495)"/>
      <path id="Path_56" data-name="Path 56" class="cls-1" d="M565.794,171.346c-.157.547-.31,1.123-.462,1.694l-.089.333-.054-.179c-.192-.636-.384-1.27-.585-1.86l-1.635-4.643h-2.638l3.7,9.292-.149.5c-.322.966-.857,1.436-1.635,1.436a2.423,2.423,0,0,1-.6-.118l-.212-.063-.491,2.068.18.06a3.834,3.834,0,0,0,1.263.2c2.321,0,3.261-1.676,3.931-3.491l3.416-9.882h-2.527Z" transform="translate(-341.599 -162.645)"/>
      <path id="Path_57" data-name="Path 57" class="cls-1" d="M583.283,173.451a2.85,2.85,0,0,1-1.766.744c-1.333,0-2.23-1.144-2.23-2.844s.923-2.859,2.3-2.859a2.037,2.037,0,0,1,1.389.622l.169.148,1.3-1.733-.145-.128a4.131,4.131,0,0,0-2.823-1.084,4.765,4.765,0,0,0-4.816,5.033c0,3,1.863,5.018,4.636,5.018a4.728,4.728,0,0,0,3.138-1.181l.13-.116-1.094-1.776Z" transform="translate(-348.145 -162.495)"/>
      <path id="Path_58" data-name="Path 58" class="cls-1" d="M595.205,171.619a1.033,1.033,0,0,1-.291.033c-.158,0-.255-.2-.255-.51V159.975h-2.571V171.03c0,1.856.772,2.8,2.3,2.8a3.233,3.233,0,0,0,1.214-.2l.156-.062-.334-1.992Z" transform="translate(-354.332 -159.952)"/>
      <path id="Path_59" data-name="Path 59" class="cls-1" d="M603.976,166.318a4.7,4.7,0,0,0-4.441,5.033c0,3,1.9,5.018,4.734,5.018a5.919,5.919,0,0,0,3.266-1.031l.158-.105-.93-1.7-.187.116a3.683,3.683,0,0,1-2.022.634,2.377,2.377,0,0,1-2.469-2.142h5.761l.035-.164a5.862,5.862,0,0,0,.1-1.091C607.978,168.068,606.445,166.318,603.976,166.318Zm1.717,3.942h-3.627a2.046,2.046,0,0,1,1.955-1.858C605.307,168.4,605.65,169.368,605.693,170.26Z" transform="translate(-357.318 -162.495)"/>
      <path id="Path_60" data-name="Path 60" class="cls-1" d="M622.925,174.257h2.586v-5.109h4.444v-2.242h-4.444v-3.054h5.222V161.61h-7.808Z" transform="translate(-366.696 -160.608)"/>
      <path id="Path_61" data-name="Path 61" class="cls-1" d="M641.462,166.318a4.7,4.7,0,0,0-4.442,5.033c0,3,1.9,5.018,4.734,5.018a5.918,5.918,0,0,0,3.266-1.031l.158-.105-.93-1.7-.187.116a3.685,3.685,0,0,1-2.023.634,2.377,2.377,0,0,1-2.469-2.142h5.76l.035-.164a5.749,5.749,0,0,0,.1-1.092C645.464,168.068,643.931,166.318,641.462,166.318Zm1.717,3.942h-3.627a2.046,2.046,0,0,1,1.955-1.858C642.793,168.4,643.136,169.368,643.179,170.26Z" transform="translate(-372.348 -162.495)"/>
      <path id="Path_62" data-name="Path 62" class="cls-1" d="M659.136,163.523l.056,1.008a3.368,3.368,0,0,0-2.174-.757c-1.987,0-4.1,1.764-4.1,5.033,0,3.1,1.525,5.018,3.979,5.018a3.913,3.913,0,0,0,2.52-1.058l.138.833h2.151V159.975h-2.571Zm0,3.1v4.106a2.188,2.188,0,0,1-1.707.9c-1.635,0-1.879-1.782-1.879-2.844,0-1.658.792-2.814,1.924-2.814A2.5,2.5,0,0,1,659.136,166.621Z" transform="translate(-378.723 -159.952)"/>
      <path id="Path_63" data-name="Path 63" class="cls-1" d="M674.891,166.318a4.7,4.7,0,0,0-4.442,5.033c0,3,1.9,5.018,4.734,5.018a5.918,5.918,0,0,0,3.266-1.031l.158-.105-.93-1.7-.187.116a3.685,3.685,0,0,1-2.023.634A2.377,2.377,0,0,1,673,172.143h5.759l.036-.164a5.734,5.734,0,0,0,.1-1.092C678.892,168.068,677.36,166.318,674.891,166.318Zm1.717,3.942h-3.627a2.046,2.046,0,0,1,1.955-1.858C676.221,168.4,676.565,169.368,676.608,170.26Z" transform="translate(-385.751 -162.495)"/>
      <path id="Path_64" data-name="Path 64" class="cls-1" d="M693.221,166.523a2.552,2.552,0,0,0-1.127-.205,3.162,3.162,0,0,0-2.517,1.521l-.13-1.3h-2.163v9.6h2.571v-5.771c.633-1.561,1.58-1.731,1.961-1.731a2.914,2.914,0,0,1,.887.141l.217.061.451-2.252Z" transform="translate(-392.501 -162.495)"/>
      <path id="Path_65" data-name="Path 65" class="cls-1" d="M701.63,166.318a7.292,7.292,0,0,0-3.881,1.236l-.167.1.994,1.8.186-.114a4.965,4.965,0,0,1,2.471-.875c.891,0,1.368.464,1.45,1.417-3.726.431-5.39,1.539-5.39,3.582a2.786,2.786,0,0,0,2.923,2.9,4.413,4.413,0,0,0,2.755-1.1l.143.877h2.15V170.5C705.263,167.764,704.007,166.318,701.63,166.318Zm1.063,5.331v1.734a2.628,2.628,0,0,1-1.789.879c-.509,0-1.115-.166-1.115-.958C699.788,172.72,700.125,172.011,702.693,171.649Z" transform="translate(-396.514 -162.495)"/>
      <path id="Path_66" data-name="Path 66" class="cls-1" d="M717.928,172.517a2.635,2.635,0,0,1-.882.2c-.509,0-1.093-.159-1.093-1.4v-4.164h2.341v-2.13h-2.341v-2.506h-2.185l-.255,2.518-1.441.1v2.018h1.309v4.168c0,2.309,1.075,3.53,3.11,3.53a6.159,6.159,0,0,0,1.943-.347l.18-.059-.464-2.006Z" transform="translate(-402.44 -160.968)"/>
      <path id="Path_67" data-name="Path 67" class="cls-1" d="M726.117,159.937a1.438,1.438,0,0,0-1.54,1.428,1.544,1.544,0,0,0,3.08,0A1.438,1.438,0,0,0,726.117,159.937Z" transform="translate(-407.454 -159.937)"/>
      <rect id="Rectangle_9" data-name="Rectangle 9" class="cls-1" width="2.571" height="9.603" transform="translate(317.37 4.047)"/>
      <path id="Path_68" data-name="Path 68" class="cls-1" d="M736.732,166.318c-2.274,0-4.577,1.729-4.577,5.033a4.6,4.6,0,1,0,9.153,0C741.308,168.047,739.006,166.318,736.732,166.318Zm0,7.877c-1.2,0-1.946-1.09-1.946-2.844s.746-2.859,1.946-2.859,1.946,1.1,1.946,2.859S737.932,174.195,736.732,174.195Z" transform="translate(-410.492 -162.495)"/>
      <path id="Path_69" data-name="Path 69" class="cls-1" d="M755.514,166.318a4.316,4.316,0,0,0-2.916,1.294l-.141-1.07H750.3v9.6h2.571v-6.539a2.608,2.608,0,0,1,1.887-1.024c.753,0,1.22.313,1.22,1.871v5.692h2.571v-5.968C758.55,167.616,757.528,166.318,755.514,166.318Z" transform="translate(-417.768 -162.495)"/>
    </g>
  </g>
  <g id="Group_10" data-name="Group 10" transform="translate(0 0)">
    <g id="Group_8" data-name="Group 8">
      <g id="Group_5" data-name="Group 5">
        <path id="Path_70" data-name="Path 70" class="cls-2" d="M140.368,116.441l1.486-3.73a26.326,26.326,0,0,0-3.981-1.228l-.884,3.916A22.381,22.381,0,0,1,140.368,116.441Z" transform="translate(-101.543 -106.878)"/>
        <path id="Path_71" data-name="Path 71" class="cls-1" d="M128.536,114.451l.26-4.006a26.556,26.556,0,0,0-4.165.055l.369,4A22.7,22.7,0,0,1,128.536,114.451Z" transform="translate(-96.588 -106.439)"/>
        <path id="Path_72" data-name="Path 72" class="cls-2" d="M116.126,115.657l-.99-3.892a26.362,26.362,0,0,0-3.944,1.344l1.587,3.689A22.333,22.333,0,0,1,116.126,115.657Z" transform="translate(-91.2 -106.991)"/>
        <path id="Path_73" data-name="Path 73" class="cls-1" d="M104.959,120.637l-2.145-3.395a26.845,26.845,0,0,0-3.334,2.5l2.649,3.018A22.586,22.586,0,0,1,104.959,120.637Z" transform="translate(-86.504 -109.187)"/>
        <path id="Path_74" data-name="Path 74" class="cls-2" d="M96.107,128.973l-3.088-2.565a26.528,26.528,0,0,0-2.4,3.4l3.452,2.051A22.715,22.715,0,0,1,96.107,128.973Z" transform="translate(-82.95 -112.862)"/>
        <path id="Path_75" data-name="Path 75" class="cls-1" d="M90.452,139.8l-3.73-1.486a26.194,26.194,0,0,0-1.229,3.981l3.915.884A22.364,22.364,0,0,1,90.452,139.8Z" transform="translate(-80.896 -117.634)"/>
        <path id="Path_76" data-name="Path 76" class="cls-2" d="M88.473,152.113l-4.006-.261a26.712,26.712,0,0,0,.055,4.165l4-.37A22.769,22.769,0,0,1,88.473,152.113Z" transform="translate(-80.462 -123.064)"/>
        <path id="Path_77" data-name="Path 77" class="cls-1" d="M89.668,163.991l-3.891.99a26.24,26.24,0,0,0,1.344,3.944l3.688-1.586A22.456,22.456,0,0,1,89.668,163.991Z" transform="translate(-81.01 -127.931)"/>
        <path id="Path_78" data-name="Path 78" class="cls-2" d="M94.66,174.811l-3.4,2.145a26.8,26.8,0,0,0,2.5,3.334l3.017-2.649A22.606,22.606,0,0,1,94.66,174.811Z" transform="translate(-83.21 -132.27)"/>
        <path id="Path_79" data-name="Path 79" class="cls-2" d="M157.659,176.8l3.089,2.567a26.479,26.479,0,0,0,2.4-3.4l-3.453-2.051A22.433,22.433,0,0,1,157.659,176.8Z" transform="translate(-109.831 -131.911)"/>
        <path id="Path_80" data-name="Path 80" class="cls-1" d="M163.674,166.344l3.731,1.487a26.364,26.364,0,0,0,1.228-3.982l-3.917-.884A22.233,22.233,0,0,1,163.674,166.344Z" transform="translate(-112.243 -127.52)"/>
        <path id="Path_81" data-name="Path 81" class="cls-2" d="M166.219,154.525l4.006.261a26.711,26.711,0,0,0-.055-4.165l-4,.37A22.768,22.768,0,0,1,166.219,154.525Z" transform="translate(-113.244 -122.57)"/>
        <path id="Path_82" data-name="Path 82" class="cls-1" d="M164.411,142.1l3.892-.99a26.35,26.35,0,0,0-1.344-3.944l-3.689,1.587A22.366,22.366,0,0,1,164.411,142.1Z" transform="translate(-112.081 -117.177)"/>
        <path id="Path_83" data-name="Path 83" class="cls-2" d="M159.092,130.948l3.394-2.145a26.745,26.745,0,0,0-2.5-3.334l-3.018,2.65A22.674,22.674,0,0,1,159.092,130.948Z" transform="translate(-109.556 -112.486)"/>
        <path id="Path_84" data-name="Path 84" class="cls-3" d="M81.923,158.791l-4,.37a30.259,30.259,0,0,0,.812,4.727l3.893-.991A26.227,26.227,0,0,1,81.923,158.791Z" transform="translate(-77.861 -125.846)"/>
        <path id="Path_85" data-name="Path 85" class="cls-3" d="M131.592,107.8a26.7,26.7,0,0,1,4.115.591l.884-3.917a30.712,30.712,0,0,0-4.738-.68h-.009l-.261,4.005Z" transform="translate(-99.376 -103.796)"/>
        <path id="Path_86" data-name="Path 86" class="cls-4" d="M148.849,112.863l2.05-3.451a30.317,30.317,0,0,0-4.3-2.12l-1.486,3.73A26.459,26.459,0,0,1,148.849,112.863Z" transform="translate(-104.8 -105.198)"/>
        <path id="Path_87" data-name="Path 87" class="cls-4" d="M168.125,133.269l3.688-1.587a30.6,30.6,0,0,0-2.24-4.241l-3.394,2.145A26.472,26.472,0,0,1,168.125,133.269Z" transform="translate(-113.247 -113.277)"/>
        <path id="Path_88" data-name="Path 88" class="cls-3" d="M172.375,147.194l4-.369a30.332,30.332,0,0,0-.812-4.727l-3.891.991A26.2,26.2,0,0,1,172.375,147.194Z" transform="translate(-115.449 -119.153)"/>
        <path id="Path_89" data-name="Path 89" class="cls-4" d="M172.543,157.568a26.673,26.673,0,0,1-.59,4.114l3.917.884a30.757,30.757,0,0,0,.679-4.737v-.01l-4.006-.26Z" transform="translate(-115.562 -125.352)"/>
        <path id="Path_90" data-name="Path 90" class="cls-3" d="M166.831,174.824l3.451,2.051a30.313,30.313,0,0,0,2.119-4.3l-3.73-1.485A26.438,26.438,0,0,1,166.831,174.824Z" transform="translate(-113.508 -130.777)"/>
        <path id="Path_91" data-name="Path 91" class="cls-4" d="M85.551,172.227l-3.69,1.587a30.583,30.583,0,0,0,2.24,4.241l3.394-2.145A26.529,26.529,0,0,1,85.551,172.227Z" transform="translate(-79.44 -131.233)"/>
        <path id="Path_92" data-name="Path 92" class="cls-4" d="M81.826,148.478a26.7,26.7,0,0,1,.591-4.115l-3.917-.884a30.637,30.637,0,0,0-.681,4.738v.008l4.006.261Z" transform="translate(-77.819 -119.707)"/>
        <path id="Path_93" data-name="Path 93" class="cls-3" d="M86.888,130.7l-3.452-2.052a30.225,30.225,0,0,0-2.119,4.3l3.731,1.486A26.283,26.283,0,0,1,86.888,130.7Z" transform="translate(-79.222 -113.76)"/>
        <path id="Path_94" data-name="Path 94" class="cls-3" d="M107.293,111.526l-1.586-3.688a30.577,30.577,0,0,0-4.24,2.24l2.143,3.394A26.5,26.5,0,0,1,107.293,111.526Z" transform="translate(-87.301 -105.417)"/>
        <path id="Path_95" data-name="Path 95" class="cls-4" d="M121.22,107.9l-.37-4a30.3,30.3,0,0,0-4.727.812l.99,3.891A26.166,26.166,0,0,1,121.22,107.9Z" transform="translate(-93.177 -103.838)"/>
        <path id="Path_96" data-name="Path 96" class="cls-4" d="M95.468,119.39l-2.648-3.016a30.779,30.779,0,0,0-3.346,3.436l3.088,2.566A26.718,26.718,0,0,1,95.468,119.39Z" transform="translate(-82.492 -108.839)"/>
        <path id="Path_97" data-name="Path 97" class="cls-3" d="M93.415,183.941,90.4,186.59a30.724,30.724,0,0,0,3.437,3.345l2.565-3.088A26.6,26.6,0,0,1,93.415,183.941Z" transform="translate(-82.863 -135.93)"/>
        <path id="Path_98" data-name="Path 98" class="cls-4" d="M157.967,185.989l2.648,3.016a30.622,30.622,0,0,0,3.345-3.436l-3.088-2.565A26.7,26.7,0,0,1,157.967,185.989Z" transform="translate(-109.954 -135.555)"/>
        <path id="Path_99" data-name="Path 99" class="cls-3" d="M160.014,121.444l3.016-2.647a30.667,30.667,0,0,0-3.436-3.344l-2.566,3.087A26.609,26.609,0,0,1,160.014,121.444Z" transform="translate(-109.578 -108.469)"/>
        <path id="Path_100" data-name="Path 100" class="cls-1" d="M150.813,122.085,153.379,119a26.4,26.4,0,0,0-3.4-2.4l-2.051,3.452A22.42,22.42,0,0,1,150.813,122.085Z" transform="translate(-105.929 -108.927)"/>
        <g id="Group_4" data-name="Group 4" transform="translate(8.012 8)">
          <path id="Path_101" data-name="Path 101" class="cls-5" d="M94.911,147.157l-3.216-.726a22.682,22.682,0,0,0-.5,3.491v.008l3.287.214v-.008A19.259,19.259,0,0,1,94.911,147.157Z" transform="translate(-91.194 -128.891)"/>
          <path id="Path_102" data-name="Path 102" class="cls-5" d="M160.476,156.767v.009a19.187,19.187,0,0,1-.43,2.978l3.216.726a22.642,22.642,0,0,0,.5-3.49v-.009Z" transform="translate(-118.8 -133.035)"/>
          <path id="Path_103" data-name="Path 103" class="cls-4" d="M133.717,120.87l.727-3.218a22.68,22.68,0,0,0-3.491-.5h-.008l-.214,3.3.046,0A19.324,19.324,0,0,1,133.717,120.87Z" transform="translate(-107.046 -117.151)"/>
          <path id="Path_104" data-name="Path 104" class="cls-5" d="M122.915,117.248a22.216,22.216,0,0,0-3.485.6l.815,3.2a19.084,19.084,0,0,1,2.973-.516Z" transform="translate(-102.515 -117.19)"/>
          <path id="Path_105" data-name="Path 105" class="cls-4" d="M111.691,120.132a22.606,22.606,0,0,0-3.126,1.652l1.782,2.82a19.237,19.237,0,0,1,2.661-1.411Z" transform="translate(-98.159 -118.346)"/>
          <path id="Path_106" data-name="Path 106" class="cls-5" d="M102.251,126.447a22.7,22.7,0,0,0-2.466,2.533l2.544,2.113a19.394,19.394,0,0,1,2.1-2.164Z" transform="translate(-94.639 -120.878)"/>
          <path id="Path_107" data-name="Path 107" class="cls-4" d="M95.272,135.475a22.434,22.434,0,0,0-1.562,3.173l3.1,1.236a19.1,19.1,0,0,1,1.333-2.7Z" transform="translate(-92.203 -124.498)"/>
          <path id="Path_108" data-name="Path 108" class="cls-4" d="M91.211,157.949a22.193,22.193,0,0,0,.6,3.485l3.231-.823a19.089,19.089,0,0,1-.513-2.968Z" transform="translate(-91.201 -133.386)"/>
          <path id="Path_109" data-name="Path 109" class="cls-5" d="M94.176,168.7a22.572,22.572,0,0,0,1.652,3.126l2.8-1.766a19.263,19.263,0,0,1-1.41-2.667Z" transform="translate(-92.39 -137.297)"/>
          <path id="Path_110" data-name="Path 110" class="cls-4" d="M102.907,175.841l-2.5,2.193a22.706,22.706,0,0,0,2.534,2.466l2.122-2.554A19.408,19.408,0,0,1,102.907,175.841Z" transform="translate(-94.889 -140.683)"/>
          <path id="Path_111" data-name="Path 111" class="cls-5" d="M152.086,179.839a22.444,22.444,0,0,0,2.466-2.533l-2.543-2.113a19.337,19.337,0,0,1-2.1,2.165Z" transform="translate(-114.735 -140.423)"/>
          <path id="Path_112" data-name="Path 112" class="cls-4" d="M159.125,170.95a22.366,22.366,0,0,0,1.562-3.172l-3.032-1.208a19,19,0,0,1-1.339,2.71Z" transform="translate(-117.304 -136.966)"/>
          <path id="Path_113" data-name="Path 113" class="cls-4" d="M163.591,148.871a22.294,22.294,0,0,0-.6-3.485l-3.17.807a19.069,19.069,0,0,1,.52,2.978Z" transform="translate(-118.71 -128.472)"/>
          <path id="Path_114" data-name="Path 114" class="cls-5" d="M160.293,137.727a22.513,22.513,0,0,0-1.652-3.126l-2.8,1.765a19.2,19.2,0,0,1,1.41,2.667Z" transform="translate(-117.116 -124.148)"/>
          <path id="Path_115" data-name="Path 115" class="cls-4" d="M153.81,128.208a22.543,22.543,0,0,0-2.534-2.466l-2.1,2.532a19.37,19.37,0,0,1,2.17,2.1Z" transform="translate(-114.44 -120.596)"/>
          <path id="Path_116" data-name="Path 116" class="cls-5" d="M144.985,121.309a22.464,22.464,0,0,0-3.173-1.563l-1.223,3.068a19.085,19.085,0,0,1,2.706,1.337Z" transform="translate(-110.999 -118.191)"/>
        </g>
      </g>
      <g id="Group_7" data-name="Group 7" transform="translate(19.587 19.684)">
        <g id="Group_6" data-name="Group 6">
          <path id="Path_117" data-name="Path 117" class="cls-1" d="M132.692,156.608a7.148,7.148,0,0,0-1.381-.6,8.232,8.232,0,0,0-3.8-.278,9.169,9.169,0,0,0-1.645.424l-.164.058a8.943,8.943,0,0,0-.872.388q-.372.189-.743.412a17.735,17.735,0,0,0-1.656,1.137c-.04-.24-.509-6.729-.541-6.966h-.553c-.032.237-.5,6.726-.541,6.966a13.427,13.427,0,0,0-3.271-1.936c-.136-.051-.27-.1-.4-.14a8.64,8.64,0,0,0-3.09-.439,7.988,7.988,0,0,0-3.189.806c-.124.062-.229.119-.31.166a.031.031,0,0,0,.027.056c.1-.031.189-.056.283-.083a8.834,8.834,0,0,1,3.189-.313,9.522,9.522,0,0,1,3.09.831,16.362,16.362,0,0,1,3.678,2.394,40.323,40.323,0,0,1-3.678,3.144c-.041.023-.08.046-.117.065a.861.861,0,0,0-1.534.3.83.83,0,0,0,.168.742,1.235,1.235,0,0,0,1.483.216c1.079-.453,2.423-1.881,4.072-3.39.137-.126.276-.253.419-.379.142.125.28.251.417.376.748.684,1.432,1.351,2.057,1.918.258.234.5.45.743.645a6.553,6.553,0,0,0,1.036.718,1.345,1.345,0,0,0,1.645-.036c.026-.022.052-.043.076-.068a.961.961,0,0,0,.168-.742.865.865,0,0,0-.645-.637.86.86,0,0,0-.888.334,3.256,3.256,0,0,1-.356-.217,12.271,12.271,0,0,1-1.036-.836c-.233-.2-.481-.428-.743-.666-.509-.462-1.067-.973-1.661-1.491a20.421,20.421,0,0,1,1.661-1.256q.364-.246.743-.473c.336-.2.682-.385,1.036-.554a10.542,10.542,0,0,1,1.645-.63,8.692,8.692,0,0,1,3.8-.235,9.55,9.55,0,0,1,1.354.319A.031.031,0,0,0,132.692,156.608Z" transform="translate(-110.517 -142.48)"/>
          <path id="Path_118" data-name="Path 118" class="cls-1" d="M135.462,146.379a4.786,4.786,0,0,0-6.769,0Z" transform="translate(-117.804 -139.991)"/>
          <path id="Path_119" data-name="Path 119" class="cls-1" d="M134.627,141.754a4.786,4.786,0,0,0-5.934,3.255Z" transform="translate(-117.804 -138.622)"/>
          <path id="Path_120" data-name="Path 120" class="cls-1" d="M119.516,141.754a4.785,4.785,0,0,1,5.934,3.255Z" transform="translate(-114.125 -138.622)"/>
          <path id="Path_121" data-name="Path 121" class="cls-1" d="M124.674,146.379a4.786,4.786,0,0,0-6.768,0Z" transform="translate(-113.479 -139.991)"/>
          <path id="Path_122" data-name="Path 122" class="cls-1" d="M132.742,136.654a5.388,5.388,0,0,0-3.81,6.6Z" transform="translate(-117.826 -136.654)"/>
          <path id="Path_123" data-name="Path 123" class="cls-1" d="M122.707,136.654a5.389,5.389,0,0,1,3.811,6.6Z" transform="translate(-115.404 -136.654)"/>
          <path id="Path_124" data-name="Path 124" class="cls-1" d="M125.883,147.178a5.245,5.245,0,0,0-5.245,5.245Z" transform="translate(-114.575 -140.874)"/>
          <path id="Path_125" data-name="Path 125" class="cls-1" d="M128.5,147.178a5.245,5.245,0,0,1,5.245,5.245Z" transform="translate(-117.727 -140.874)"/>
          <path id="Path_126" data-name="Path 126" class="cls-1" d="M131.024,142.784" transform="translate(-118.739 -139.112)"/>
          <path id="Path_127" data-name="Path 127" class="cls-1" d="M130.551,143.642" transform="translate(-118.549 -139.456)"/>
          <path id="Path_128" data-name="Path 128" class="cls-1" d="M129.055,146.35" transform="translate(-117.95 -140.542)"/>
          <path id="Path_129" data-name="Path 129" class="cls-1" d="M131.768,149" transform="translate(-119.037 -141.604)"/>
          <path id="Path_130" data-name="Path 130" class="cls-1" d="M128.737,146.414" transform="translate(-117.822 -140.567)"/>
          <path id="Path_131" data-name="Path 131" class="cls-1" d="M127.674,147.1" transform="translate(-117.396 -140.841)"/>
          <path id="Path_132" data-name="Path 132" class="cls-1" d="M124.987,149.428" transform="translate(-116.319 -141.776)"/>
          <path id="Path_133" data-name="Path 133" class="cls-1" d="M124.337,150.078" transform="translate(-116.058 -142.036)"/>
          <path id="Path_134" data-name="Path 134" class="cls-1" d="M129.308,146.033" transform="translate(-118.051 -140.415)"/>
          <path id="Path_135" data-name="Path 135" class="cls-1" d="M129.15,146.35" transform="translate(-117.988 -140.542)"/>
          <path id="Path_136" data-name="Path 136" class="cls-1" d="M133.5,146.35" transform="translate(-119.73 -140.542)"/>
        </g>
      </g>
    </g>
    <g id="Group_9" data-name="Group 9" transform="translate(15.925 48.46)">
      <path id="Path_137" data-name="Path 137" class="cls-1" d="M117.893,189.789l-3.621,6.507.256.084q.59.2,1.192.362l.17.047.922-1.672,1.761.373.193,1.919.171.026c.445.067.881.122,1.3.162l.27.027-.76-7.442Zm.636,4.29-1.114-.236c.214-.417.642-1.251.953-1.862C118.417,192.667,118.491,193.6,118.528,194.079Z" transform="translate(-108.359 -186.735)"/>
      <path id="Path_138" data-name="Path 138" class="cls-1" d="M132.482,189.884l-.488,3.188c-.1.571-.18,1.127-.239,1.609-.2-.5-.423-.993-.646-1.47l-1.438-2.923-1.968.283.642,7.084.2,0c.386,0,.772-.011,1.154-.031l.229-.011-.243-2.784c-.038-.425-.1-.924-.177-1.427.184.426.371.837.53,1.179l1.368,2.864,1.248-.179.592-3.179c.086-.427.148-.923.2-1.41.055.283.11.567.164.837.049.246.1.48.135.689l.534,2.781.225-.054c.393-.093.781-.2,1.167-.305l.2-.056-1.44-6.963Z" transform="translate(-113.744 -186.661)"/>
      <path id="Path_139" data-name="Path 139" class="cls-1" d="M147.619,188.713l-.713-1.254-2.144,1.22-.716-1.4,2.326-1.323-.718-1.262-3.768,2.143,3.487,6.325.189-.09q.56-.269,1.1-.563l.2-.108-1.4-2.461Z" transform="translate(-119.431 -184.691)"/>
      <path id="Path_140" data-name="Path 140" class="cls-1" d="M111.434,188.257l-.1-.151a3.675,3.675,0,0,0-1.312-1.126,2.775,2.775,0,0,0-2.1-.321,1.953,1.953,0,0,0-1.182.967c-.464.857-.237,1.779.691,2.818.606.688.633.991.475,1.282a.58.58,0,0,1-.353.3,1.118,1.118,0,0,1-.835-.164,3.11,3.11,0,0,1-1.125-1.061l-.149-.25-1.038,1.084.081.143a2.626,2.626,0,0,0,.4.515,4.582,4.582,0,0,0,1.066.808,3.811,3.811,0,0,0,1.085.406,2.737,2.737,0,0,0,.513.051,2.054,2.054,0,0,0,1.866-1.105c.49-.9.31-1.769-.583-2.8-.615-.728-.737-1.014-.57-1.324a.484.484,0,0,1,.295-.235,1.012,1.012,0,0,1,.746.145,2.662,2.662,0,0,1,.942.843l.151.224Z" transform="translate(-104.402 -185.445)"/>
    </g>
    <path id="Path_141" data-name="Path 141" class="cls-1" d="M129.412,128.871a18.807,18.807,0,1,0,5.508,13.3A18.682,18.682,0,0,0,129.412,128.871Zm-13.3,31.536a18.238,18.238,0,1,1,18.238-18.238A18.259,18.259,0,0,1,116.114,160.407Z" transform="translate(-85.633 -111.641)"/>
  </g>
</svg>
