<svg xmlns="http://www.w3.org/2000/svg" xmlns:xlink="http://www.w3.org/1999/xlink" width="167" height="167" viewBox="0 0 167 167">
  <defs>
    <clipPath id="clip-path">
      <rect id="Rectangle_147" data-name="Rectangle 147" width="167" height="167" transform="translate(1984 944.363)" fill="#fff" stroke="#707070" stroke-width="1"/>
    </clipPath>
  </defs>
  <g id="Mask_Group_17" data-name="Mask Group 17" transform="translate(-1984 -944.363)" clip-path="url(#clip-path)">
    <g id="Group_85" data-name="Group 85" transform="translate(1906.232 953.931)" opacity="0.058">
      <g id="Group_83" data-name="Group 83">
        <g id="Group_80" data-name="Group 80">
          <path id="Path_619" data-name="Path 619" d="M149.166,129.353l5.357-13.444a94.887,94.887,0,0,0-14.347-4.426L136.989,125.6A80.677,80.677,0,0,1,149.166,129.353Z" transform="translate(-9.24 -94.887)" fill="#fff"/>
          <path id="Path_620" data-name="Path 620" d="M138.7,125.031l.937-14.439a95.715,95.715,0,0,0-15.01.2l1.33,14.409A81.833,81.833,0,0,1,138.7,125.031Z" transform="translate(-23.563 -96.156)" fill="#fff"/>
          <path id="Path_621" data-name="Path 621" d="M128.976,125.792l-3.569-14.027a95.012,95.012,0,0,0-14.215,4.843l5.721,13.3A80.484,80.484,0,0,1,128.976,125.792Z" transform="translate(-39.139 -94.56)" fill="#fff"/>
          <path id="Path_622" data-name="Path 622" d="M119.226,129.477l-7.731-12.235a96.762,96.762,0,0,0-12.015,9l9.547,10.877A81.41,81.41,0,0,1,119.226,129.477Z" transform="translate(-52.714 -88.212)" fill="#fff"/>
          <path id="Path_623" data-name="Path 623" d="M110.409,135.651l-11.13-9.243a95.6,95.6,0,0,0-8.664,12.259l12.44,7.39A81.862,81.862,0,0,1,110.409,135.651Z" transform="translate(-62.988 -77.588)" fill="#fff"/>
          <path id="Path_624" data-name="Path 624" d="M103.364,143.667,89.922,138.31a94.4,94.4,0,0,0-4.428,14.347l14.111,3.187A80.608,80.608,0,0,1,103.364,143.667Z" transform="translate(-68.924 -63.794)" fill="#fff"/>
          <path id="Path_625" data-name="Path 625" d="M99.051,152.791l-14.437-.939a96.271,96.271,0,0,0,.2,15.012l14.407-1.332A82.069,82.069,0,0,1,99.051,152.791Z" transform="translate(-70.178 -48.098)" fill="#fff"/>
          <path id="Path_626" data-name="Path 626" d="M99.8,163.991,85.777,167.56a94.578,94.578,0,0,0,4.843,14.213l13.291-5.717A80.926,80.926,0,0,1,99.8,163.991Z" transform="translate(-68.596 -34.029)" fill="#fff"/>
          <path id="Path_627" data-name="Path 627" d="M103.5,174.811,91.265,182.54a96.576,96.576,0,0,0,9,12.015l10.873-9.547A81.463,81.463,0,0,1,103.5,174.811Z" transform="translate(-62.235 -21.489)" fill="#fff"/>
          <path id="Path_628" data-name="Path 628" d="M157.659,184.318l11.132,9.251a95.435,95.435,0,0,0,8.666-12.261l-12.445-7.392A80.861,80.861,0,0,1,157.659,184.318Z" transform="translate(14.717 -22.526)" fill="#fff"/>
          <path id="Path_629" data-name="Path 629" d="M163.674,175.142l13.448,5.361a95,95,0,0,0,4.426-14.351l-14.116-3.187A80.1,80.1,0,0,1,163.674,175.142Z" transform="translate(21.688 -35.218)" fill="#fff"/>
          <path id="Path_630" data-name="Path 630" d="M166.34,164.693l14.439.939a96.262,96.262,0,0,0-.2-15.012l-14.409,1.332A82.059,82.059,0,0,1,166.34,164.693Z" transform="translate(24.584 -49.526)" fill="#fff"/>
          <path id="Path_631" data-name="Path 631" d="M167.381,154.95l14.027-3.567a94.982,94.982,0,0,0-4.843-14.213l-13.3,5.719A80.62,80.62,0,0,1,167.381,154.95Z" transform="translate(21.22 -65.115)" fill="#fff"/>
          <path id="Path_632" data-name="Path 632" d="M164.612,145.215l12.233-7.729a96.405,96.405,0,0,0-8.994-12.017l-10.877,9.549A81.7,81.7,0,0,1,164.612,145.215Z" transform="translate(13.922 -78.677)" fill="#fff"/>
          <path id="Path_633" data-name="Path 633" d="M92.335,158.791l-14.411,1.332a109.05,109.05,0,0,0,2.925,17.035l14.029-3.571A94.53,94.53,0,0,1,92.335,158.791Z" transform="translate(-77.697 -40.056)" fill="#fff"/>
          <path id="Path_634" data-name="Path 634" d="M131.615,118.233a96.239,96.239,0,0,1,14.83,2.129l3.185-14.116a110.691,110.691,0,0,0-17.076-2.45h-.032l-.939,14.435Z" transform="translate(-15.506 -103.796)" fill="#fff"/>
          <path id="Path_635" data-name="Path 635" d="M158.583,127.371l7.39-12.438a109.268,109.268,0,0,0-15.506-7.641l-5.357,13.444A95.372,95.372,0,0,1,158.583,127.371Z" transform="translate(0.173 -99.744)" fill="#fff"/>
          <path id="Path_636" data-name="Path 636" d="M173.195,148.446l13.291-5.719a110.241,110.241,0,0,0-8.075-15.286l-12.233,7.729A95.416,95.416,0,0,1,173.195,148.446Z" transform="translate(24.591 -76.391)" fill="#fff"/>
          <path id="Path_637" data-name="Path 637" d="M174.21,160.465l14.409-1.33a109.321,109.321,0,0,0-2.925-17.037l-14.023,3.573A94.414,94.414,0,0,1,174.21,160.465Z" transform="translate(30.957 -59.403)" fill="#fff"/>
          <path id="Path_638" data-name="Path 638" d="M174.08,157.591a96.13,96.13,0,0,1-2.127,14.826l14.116,3.187a110.852,110.852,0,0,0,2.448-17.074l0-.035-14.437-.937Z" transform="translate(31.284 -41.484)" fill="#fff"/>
          <path id="Path_639" data-name="Path 639" d="M166.831,184.554l12.438,7.392a109.255,109.255,0,0,0,7.637-15.506l-13.442-5.352A95.283,95.283,0,0,1,166.831,184.554Z" transform="translate(25.347 -25.803)" fill="#fff"/>
          <path id="Path_640" data-name="Path 640" d="M95.158,172.227l-13.3,5.721a110.214,110.214,0,0,0,8.075,15.284l12.233-7.729A95.626,95.626,0,0,1,95.158,172.227Z" transform="translate(-73.134 -24.483)" fill="#fff"/>
          <path id="Path_641" data-name="Path 641" d="M92.261,161.5a96.223,96.223,0,0,1,2.129-14.83l-14.116-3.187a110.417,110.417,0,0,0-2.453,17.078l0,.03,14.44.939Z" transform="translate(-77.819 -57.803)" fill="#fff"/>
          <path id="Path_642" data-name="Path 642" d="M101.4,136.042l-12.44-7.395a108.949,108.949,0,0,0-7.639,15.508l13.446,5.354A94.731,94.731,0,0,1,101.4,136.042Z" transform="translate(-73.765 -74.993)" fill="#fff"/>
          <path id="Path_643" data-name="Path 643" d="M122.466,121.129l-5.717-13.291a110.2,110.2,0,0,0-15.282,8.073l7.725,12.231A95.489,95.489,0,0,1,122.466,121.129Z" transform="translate(-50.411 -99.111)" fill="#fff"/>
          <path id="Path_644" data-name="Path 644" d="M134.491,118.309,133.159,103.9a109.215,109.215,0,0,0-17.035,2.925l3.569,14.025A94.306,94.306,0,0,1,134.491,118.309Z" transform="translate(-33.423 -103.675)" fill="#fff"/>
          <path id="Path_645" data-name="Path 645" d="M111.076,127.245l-9.543-10.871a110.927,110.927,0,0,0-12.058,12.384l11.13,9.247A96.3,96.3,0,0,1,111.076,127.245Z" transform="translate(-64.309 -89.218)" fill="#fff"/>
          <path id="Path_646" data-name="Path 646" d="M101.273,183.941,90.4,193.488a110.726,110.726,0,0,0,12.386,12.054l9.245-11.13A95.869,95.869,0,0,1,101.273,183.941Z" transform="translate(-63.24 -10.907)" fill="#fff"/>
          <path id="Path_647" data-name="Path 647" d="M157.967,193.761l9.543,10.871a110.345,110.345,0,0,0,12.056-12.384L168.436,183A96.223,96.223,0,0,1,157.967,193.761Z" transform="translate(15.074 -11.991)" fill="#fff"/>
          <path id="Path_648" data-name="Path 648" d="M167.789,137.047l10.871-9.541a110.515,110.515,0,0,0-12.384-12.054l-9.247,11.125A95.9,95.9,0,0,1,167.789,137.047Z" transform="translate(13.986 -90.287)" fill="#fff"/>
          <path id="Path_649" data-name="Path 649" d="M158.329,136.388l9.247-11.132a95.154,95.154,0,0,0-12.257-8.664l-7.392,12.442A80.8,80.8,0,0,1,158.329,136.388Z" transform="translate(3.437 -88.965)" fill="#fff"/>
          <g id="Group_79" data-name="Group 79" transform="translate(28.877 28.834)">
            <path id="Path_650" data-name="Path 650" d="M104.591,149.048,93,146.431a81.754,81.754,0,0,0-1.8,12.581l0,.03,11.847.771,0-.03A69.423,69.423,0,0,1,104.591,149.048Z" transform="translate(-91.194 -83.215)" fill="#fff"/>
            <path id="Path_651" data-name="Path 651" d="M161.6,156.767l0,.032a69.133,69.133,0,0,1-1.548,10.732l11.592,2.617a81.6,81.6,0,0,0,1.8-12.578l0-.032Z" transform="translate(-11.393 -71.235)" fill="#fff"/>
            <path id="Path_652" data-name="Path 652" d="M141.5,130.554l2.619-11.6a81.74,81.74,0,0,0-12.583-1.8h-.03l-.773,11.883c.056,0,.11,0,.166.006A69.641,69.641,0,0,1,141.5,130.554Z" transform="translate(-45.371 -117.151)" fill="#fff"/>
            <path id="Path_653" data-name="Path 653" d="M131.991,117.248a80.074,80.074,0,0,0-12.561,2.159l2.938,11.533a68.774,68.774,0,0,1,10.715-1.861Z" transform="translate(-58.468 -117.039)" fill="#fff"/>
            <path id="Path_654" data-name="Path 654" d="M119.831,120.132a81.482,81.482,0,0,0-11.266,5.952l6.421,10.165a69.332,69.332,0,0,1,9.59-5.087Z" transform="translate(-71.061 -113.696)" fill="#fff"/>
            <path id="Path_655" data-name="Path 655" d="M108.674,126.447a81.791,81.791,0,0,0-8.889,9.128l9.167,7.617a69.881,69.881,0,0,1,7.574-7.8Z" transform="translate(-81.237 -106.377)" fill="#fff"/>
            <path id="Path_656" data-name="Path 656" d="M99.339,135.475a80.869,80.869,0,0,0-5.629,11.436l11.186,4.454a68.835,68.835,0,0,1,4.8-9.733Z" transform="translate(-88.278 -95.913)" fill="#fff"/>
            <path id="Path_657" data-name="Path 657" d="M91.211,158.746a79.994,79.994,0,0,0,2.159,12.559l11.646-2.964a68.8,68.8,0,0,1-1.848-10.7Z" transform="translate(-91.174 -70.22)" fill="#fff"/>
            <path id="Path_658" data-name="Path 658" d="M94.176,172.108a81.36,81.36,0,0,0,5.955,11.266l10.074-6.365a69.425,69.425,0,0,1-5.082-9.612Z" transform="translate(-87.738 -58.915)" fill="#fff"/>
            <path id="Path_659" data-name="Path 659" d="M109.412,175.841l-9,7.9a81.842,81.842,0,0,0,9.133,8.886l7.649-9.206A69.928,69.928,0,0,1,109.412,175.841Z" transform="translate(-80.514 -49.128)" fill="#fff"/>
            <path id="Path_660" data-name="Path 660" d="M157.759,191.938a80.88,80.88,0,0,0,8.887-9.13l-9.165-7.615a69.7,69.7,0,0,1-7.574,7.8Z" transform="translate(-23.145 -49.879)" fill="#fff"/>
            <path id="Path_661" data-name="Path 661" d="M166.443,182.355a80.593,80.593,0,0,0,5.629-11.432l-10.929-4.353a68.52,68.52,0,0,1-4.827,9.765Z" transform="translate(-15.718 -59.874)" fill="#fff"/>
            <path id="Path_662" data-name="Path 662" d="M173.4,157.945a80.348,80.348,0,0,0-2.159-12.559l-11.423,2.908a68.714,68.714,0,0,1,1.874,10.732Z" transform="translate(-11.653 -84.426)" fill="#fff"/>
            <path id="Path_663" data-name="Path 663" d="M171.876,145.867a81.127,81.127,0,0,0-5.955-11.266l-10.076,6.363a69.195,69.195,0,0,1,5.082,9.612Z" transform="translate(-16.262 -96.926)" fill="#fff"/>
            <path id="Path_664" data-name="Path 664" d="M165.887,134.629a81.252,81.252,0,0,0-9.133-8.887l-7.582,9.126a69.816,69.816,0,0,1,7.82,7.567Z" transform="translate(-23.997 -107.194)" fill="#fff"/>
            <path id="Path_665" data-name="Path 665" d="M156.431,125.379A80.976,80.976,0,0,0,145,119.746L140.59,130.8a68.792,68.792,0,0,1,9.752,4.819Z" transform="translate(-33.943 -114.143)" fill="#fff"/>
          </g>
        </g>
        <g id="Group_82" data-name="Group 82" transform="translate(70.595 70.941)">
          <g id="Group_81" data-name="Group 81">
            <path id="Path_666" data-name="Path 666" d="M190.438,170.731a25.754,25.754,0,0,0-4.979-2.153,29.667,29.667,0,0,0-13.7-1,33.039,33.039,0,0,0-5.929,1.529c-.2.071-.391.136-.592.209a32.214,32.214,0,0,0-3.141,1.4q-1.341.68-2.677,1.483a63.927,63.927,0,0,0-5.97,4.1c-.142-.866-1.835-24.252-1.95-25.107h-1.993c-.117.855-1.807,24.241-1.95,25.107a48.389,48.389,0,0,0-11.788-6.978c-.49-.184-.974-.35-1.451-.505a31.143,31.143,0,0,0-11.136-1.583,28.793,28.793,0,0,0-11.495,2.906c-.447.222-.825.43-1.118.6a.112.112,0,0,0,.1.2c.343-.11.682-.2,1.021-.3a31.833,31.833,0,0,1,11.495-1.129,34.315,34.315,0,0,1,11.136,3,58.964,58.964,0,0,1,13.256,8.63c-5.618,4.895-10.37,9.659-13.256,11.331-.147.082-.287.164-.423.235a3.1,3.1,0,0,0-5.527,1.09,2.991,2.991,0,0,0,.6,2.675c1.535,1.533,3.31,1.634,5.346.779,3.888-1.634,8.731-6.779,14.675-12.218.494-.453,1-.911,1.509-1.364.512.451,1.01.9,1.5,1.356,2.694,2.463,5.16,4.869,7.414,6.913.928.842,1.82,1.624,2.677,2.323a23.621,23.621,0,0,0,3.733,2.587c2.276,1.2,4.24,1.349,5.929-.13.093-.08.186-.155.274-.246a3.461,3.461,0,0,0,.607-2.675,3.119,3.119,0,0,0-2.325-2.3,3.1,3.1,0,0,0-3.2,1.2,11.714,11.714,0,0,1-1.282-.782A44.163,44.163,0,0,1,162.1,188.9c-.84-.736-1.734-1.544-2.677-2.4-1.833-1.665-3.845-3.508-5.987-5.374a73.55,73.55,0,0,1,5.987-4.525q1.312-.887,2.677-1.706c1.211-.719,2.459-1.388,3.733-2a38,38,0,0,1,5.929-2.269,31.329,31.329,0,0,1,13.7-.848,34.428,34.428,0,0,1,4.882,1.149A.112.112,0,0,0,190.438,170.731Z" transform="translate(-110.517 -119.812)" fill="#fff"/>
            <path id="Path_667" data-name="Path 667" d="M153.088,150.029a17.25,17.25,0,0,0-24.395,0Z" transform="translate(-89.45 -127.008)" fill="#fff"/>
            <path id="Path_668" data-name="Path 668" d="M150.08,142.256a17.249,17.249,0,0,0-21.387,11.732Z" transform="translate(-89.45 -130.966)" fill="#fff"/>
            <path id="Path_669" data-name="Path 669" d="M119.516,142.256A17.246,17.246,0,0,1,140.9,153.988Z" transform="translate(-100.086 -130.966)" fill="#fff"/>
            <path id="Path_670" data-name="Path 670" d="M142.3,150.029a17.248,17.248,0,0,0-24.393,0Z" transform="translate(-101.952 -127.008)" fill="#fff"/>
            <path id="Path_671" data-name="Path 671" d="M143.145,136.654a19.42,19.42,0,0,0-13.731,23.784Z" transform="translate(-89.387 -136.654)" fill="#fff"/>
            <path id="Path_672" data-name="Path 672" d="M122.707,136.654a19.421,19.421,0,0,1,13.734,23.784Z" transform="translate(-96.388 -136.654)" fill="#fff"/>
            <path id="Path_673" data-name="Path 673" d="M139.54,147.178a18.9,18.9,0,0,0-18.9,18.9Z" transform="translate(-98.786 -124.457)" fill="#fff"/>
            <path id="Path_674" data-name="Path 674" d="M128.5,147.178a18.9,18.9,0,0,1,18.9,18.9Z" transform="translate(-89.675 -124.457)" fill="#fff"/>
            <path id="Path_675" data-name="Path 675" d="M131.024,142.784" transform="translate(-86.748 -129.549)" fill="#fff"/>
            <path id="Path_676" data-name="Path 676" d="M130.551,143.642" transform="translate(-87.296 -128.555)" fill="#fff"/>
            <path id="Path_677" data-name="Path 677" d="M129.055,146.35" transform="translate(-89.03 -125.416)" fill="#fff"/>
            <path id="Path_678" data-name="Path 678" d="M131.768,149" transform="translate(-85.886 -122.345)" fill="#fff"/>
            <path id="Path_679" data-name="Path 679" d="M128.737,146.414" transform="translate(-89.399 -125.342)" fill="#fff"/>
            <path id="Path_680" data-name="Path 680" d="M127.674,147.1" transform="translate(-90.631 -124.552)" fill="#fff"/>
            <path id="Path_681" data-name="Path 681" d="M124.987,149.428" transform="translate(-93.745 -121.849)" fill="#fff"/>
            <path id="Path_682" data-name="Path 682" d="M124.337,150.078" transform="translate(-94.498 -121.095)" fill="#fff"/>
            <path id="Path_683" data-name="Path 683" d="M129.308,146.033" transform="translate(-88.737 -125.784)" fill="#fff"/>
            <path id="Path_684" data-name="Path 684" d="M129.15,146.35" transform="translate(-88.92 -125.416)" fill="#fff"/>
            <path id="Path_685" data-name="Path 685" d="M133.5,146.35" transform="translate(-83.883 -125.416)" fill="#fff"/>
          </g>
        </g>
      </g>
      <g id="Group_84" data-name="Group 84" transform="translate(57.393 174.654)">
        <path id="Path_686" data-name="Path 686" d="M127.321,189.789,114.272,213.24l.922.3q2.128.7,4.3,1.3l.611.171,3.323-6.026,6.345,1.343.7,6.915.615.093c1.6.24,3.176.438,4.676.585l.974.1-2.738-26.821Zm2.291,15.461L125.6,204.4c.771-1.5,2.312-4.51,3.435-6.71C129.212,200.161,129.478,203.542,129.612,205.25Z" transform="translate(-92.963 -178.782)" fill="#fff"/>
        <path id="Path_687" data-name="Path 687" d="M144.931,190.611l-1.76,11.49c-.365,2.058-.648,4.063-.861,5.8-.736-1.786-1.524-3.578-2.33-5.3L134.8,192.069l-7.094,1.019,2.312,25.53.736-.007c1.39-.013,2.781-.039,4.158-.11l.827-.041-.877-10.033c-.136-1.531-.378-3.329-.637-5.143.665,1.535,1.336,3.016,1.911,4.249l4.929,10.322,4.5-.646,2.133-11.456c.309-1.539.533-3.325.721-5.082.2,1.021.4,2.042.592,3.018.177.887.343,1.729.488,2.485l1.924,10.024.812-.194q2.124-.505,4.206-1.1l.715-.2-5.19-25.1Z" transform="translate(-77.397 -178.996)" fill="#fff"/>
        <path id="Path_688" data-name="Path 688" d="M162.548,199.187l-2.569-4.521-7.727,4.4-2.58-5.054,8.383-4.767-2.589-4.549-13.58,7.723,12.568,22.795.68-.326q2.018-.968,3.979-2.027l.721-.389-5.046-8.869Z" transform="translate(-60.957 -184.691)" fill="#fff"/>
        <path id="Path_689" data-name="Path 689" d="M129.747,192.648l-.369-.544a13.246,13.246,0,0,0-4.728-4.057,10,10,0,0,0-7.576-1.157,7.039,7.039,0,0,0-4.26,3.487c-1.671,3.087-.855,6.412,2.491,10.158,2.183,2.481,2.282,3.573,1.712,4.62a2.089,2.089,0,0,1-1.272,1.073,4.029,4.029,0,0,1-3.01-.589,11.208,11.208,0,0,1-4.055-3.826l-.538-.9-3.742,3.906.294.516a9.456,9.456,0,0,0,1.453,1.855,16.52,16.52,0,0,0,3.843,2.91,13.735,13.735,0,0,0,3.91,1.462,9.863,9.863,0,0,0,1.85.183,7.4,7.4,0,0,0,6.725-3.983c1.766-3.258,1.116-6.376-2.1-10.1-2.217-2.625-2.658-3.653-2.053-4.771a1.743,1.743,0,0,1,1.062-.849,3.647,3.647,0,0,1,2.69.522,9.6,9.6,0,0,1,3.394,3.04l.544.807Z" transform="translate(-104.402 -182.512)" fill="#fff"/>
      </g>
      <path id="Path_690" data-name="Path 690" d="M213.015,143.215a67.781,67.781,0,1,0,19.85,47.926A67.333,67.333,0,0,0,213.015,143.215ZM165.087,256.872a65.731,65.731,0,1,1,65.731-65.731A65.807,65.807,0,0,1,165.087,256.872Z" transform="translate(-55.232 -81.118)" fill="#fff"/>
    </g>
  </g>
</svg>
