<svg xmlns="http://www.w3.org/2000/svg" width="60.987" height="59.454" viewBox="0 0 60.987 59.454">
  <g id="Group_10" data-name="Group 10" transform="translate(0 0)">
    <g id="Group_8" data-name="Group 8">
      <g id="Group_5" data-name="Group 5">
        <path id="Path_70" data-name="Path 70" d="M140.368,116.441l1.486-3.73a26.326,26.326,0,0,0-3.981-1.228l-.884,3.916A22.381,22.381,0,0,1,140.368,116.441Z" transform="translate(-101.543 -106.878)" fill="#feca06"/>
        <path id="Path_71" data-name="Path 71" d="M128.536,114.451l.26-4.006a26.556,26.556,0,0,0-4.165.055l.369,4A22.7,22.7,0,0,1,128.536,114.451Z" transform="translate(-96.588 -106.439)" fill="#0a5c21"/>
        <path id="Path_72" data-name="Path 72" d="M116.126,115.657l-.99-3.892a26.362,26.362,0,0,0-3.944,1.344l1.587,3.689A22.333,22.333,0,0,1,116.126,115.657Z" transform="translate(-91.2 -106.991)" fill="#feca06"/>
        <path id="Path_73" data-name="Path 73" d="M104.959,120.637l-2.145-3.395a26.845,26.845,0,0,0-3.334,2.5l2.649,3.018A22.586,22.586,0,0,1,104.959,120.637Z" transform="translate(-86.504 -109.187)" fill="#0a5c21"/>
        <path id="Path_74" data-name="Path 74" d="M96.107,128.973l-3.088-2.565a26.528,26.528,0,0,0-2.4,3.4l3.452,2.051A22.715,22.715,0,0,1,96.107,128.973Z" transform="translate(-82.95 -112.862)" fill="#feca06"/>
        <path id="Path_75" data-name="Path 75" d="M90.452,139.8l-3.73-1.486a26.194,26.194,0,0,0-1.229,3.981l3.915.884A22.364,22.364,0,0,1,90.452,139.8Z" transform="translate(-80.896 -117.634)" fill="#0a5c21"/>
        <path id="Path_76" data-name="Path 76" d="M88.473,152.113l-4.006-.261a26.712,26.712,0,0,0,.055,4.165l4-.37A22.769,22.769,0,0,1,88.473,152.113Z" transform="translate(-80.462 -123.064)" fill="#feca06"/>
        <path id="Path_77" data-name="Path 77" d="M89.668,163.991l-3.891.99a26.24,26.24,0,0,0,1.344,3.944l3.688-1.586A22.456,22.456,0,0,1,89.668,163.991Z" transform="translate(-81.01 -127.931)" fill="#0a5c21"/>
        <path id="Path_78" data-name="Path 78" d="M94.66,174.811l-3.4,2.145a26.8,26.8,0,0,0,2.5,3.334l3.017-2.649A22.606,22.606,0,0,1,94.66,174.811Z" transform="translate(-83.21 -132.27)" fill="#feca06"/>
        <path id="Path_79" data-name="Path 79" d="M157.659,176.8l3.089,2.567a26.479,26.479,0,0,0,2.4-3.4l-3.453-2.051A22.433,22.433,0,0,1,157.659,176.8Z" transform="translate(-109.831 -131.911)" fill="#feca06"/>
        <path id="Path_80" data-name="Path 80" d="M163.674,166.344l3.731,1.487a26.364,26.364,0,0,0,1.228-3.982l-3.917-.884A22.233,22.233,0,0,1,163.674,166.344Z" transform="translate(-112.243 -127.52)" fill="#0a5c21"/>
        <path id="Path_81" data-name="Path 81" d="M166.219,154.525l4.006.261a26.711,26.711,0,0,0-.055-4.165l-4,.37A22.768,22.768,0,0,1,166.219,154.525Z" transform="translate(-113.244 -122.57)" fill="#feca06"/>
        <path id="Path_82" data-name="Path 82" d="M164.411,142.1l3.892-.99a26.35,26.35,0,0,0-1.344-3.944l-3.689,1.587A22.366,22.366,0,0,1,164.411,142.1Z" transform="translate(-112.081 -117.177)" fill="#0a5c21"/>
        <path id="Path_83" data-name="Path 83" d="M159.092,130.948l3.394-2.145a26.745,26.745,0,0,0-2.5-3.334l-3.018,2.65A22.674,22.674,0,0,1,159.092,130.948Z" transform="translate(-109.556 -112.486)" fill="#feca06"/>
        <path id="Path_84" data-name="Path 84" d="M81.923,158.791l-4,.37a30.259,30.259,0,0,0,.812,4.727l3.893-.991A26.227,26.227,0,0,1,81.923,158.791Z" transform="translate(-77.861 -125.846)" fill="#0f1010"/>
        <path id="Path_85" data-name="Path 85" d="M131.592,107.8a26.7,26.7,0,0,1,4.115.591l.884-3.917a30.712,30.712,0,0,0-4.738-.68h-.009l-.261,4.005Z" transform="translate(-99.376 -103.796)" fill="#0f1010"/>
        <path id="Path_86" data-name="Path 86" d="M148.849,112.863l2.05-3.451a30.317,30.317,0,0,0-4.3-2.12l-1.486,3.73A26.459,26.459,0,0,1,148.849,112.863Z" transform="translate(-104.8 -105.198)" fill="#345ea6"/>
        <path id="Path_87" data-name="Path 87" d="M168.125,133.269l3.688-1.587a30.6,30.6,0,0,0-2.24-4.241l-3.394,2.145A26.472,26.472,0,0,1,168.125,133.269Z" transform="translate(-113.247 -113.277)" fill="#345ea6"/>
        <path id="Path_88" data-name="Path 88" d="M172.375,147.194l4-.369a30.332,30.332,0,0,0-.812-4.727l-3.891.991A26.2,26.2,0,0,1,172.375,147.194Z" transform="translate(-115.449 -119.153)" fill="#0f1010"/>
        <path id="Path_89" data-name="Path 89" d="M172.543,157.568a26.673,26.673,0,0,1-.59,4.114l3.917.884a30.757,30.757,0,0,0,.679-4.737v-.01l-4.006-.26Z" transform="translate(-115.562 -125.352)" fill="#345ea6"/>
        <path id="Path_90" data-name="Path 90" d="M166.831,174.824l3.451,2.051a30.313,30.313,0,0,0,2.119-4.3l-3.73-1.485A26.438,26.438,0,0,1,166.831,174.824Z" transform="translate(-113.508 -130.777)" fill="#0f1010"/>
        <path id="Path_91" data-name="Path 91" d="M85.551,172.227l-3.69,1.587a30.583,30.583,0,0,0,2.24,4.241l3.394-2.145A26.529,26.529,0,0,1,85.551,172.227Z" transform="translate(-79.44 -131.233)" fill="#345ea6"/>
        <path id="Path_92" data-name="Path 92" d="M81.826,148.478a26.7,26.7,0,0,1,.591-4.115l-3.917-.884a30.637,30.637,0,0,0-.681,4.738v.008l4.006.261Z" transform="translate(-77.819 -119.707)" fill="#345ea6"/>
        <path id="Path_93" data-name="Path 93" d="M86.888,130.7l-3.452-2.052a30.225,30.225,0,0,0-2.119,4.3l3.731,1.486A26.283,26.283,0,0,1,86.888,130.7Z" transform="translate(-79.222 -113.76)" fill="#0f1010"/>
        <path id="Path_94" data-name="Path 94" d="M107.293,111.526l-1.586-3.688a30.577,30.577,0,0,0-4.24,2.24l2.143,3.394A26.5,26.5,0,0,1,107.293,111.526Z" transform="translate(-87.301 -105.417)" fill="#0f1010"/>
        <path id="Path_95" data-name="Path 95" d="M121.22,107.9l-.37-4a30.3,30.3,0,0,0-4.727.812l.99,3.891A26.166,26.166,0,0,1,121.22,107.9Z" transform="translate(-93.177 -103.838)" fill="#345ea6"/>
        <path id="Path_96" data-name="Path 96" d="M95.468,119.39l-2.648-3.016a30.779,30.779,0,0,0-3.346,3.436l3.088,2.566A26.718,26.718,0,0,1,95.468,119.39Z" transform="translate(-82.492 -108.839)" fill="#345ea6"/>
        <path id="Path_97" data-name="Path 97" d="M93.415,183.941,90.4,186.59a30.724,30.724,0,0,0,3.437,3.345l2.565-3.088A26.6,26.6,0,0,1,93.415,183.941Z" transform="translate(-82.863 -135.93)" fill="#0f1010"/>
        <path id="Path_98" data-name="Path 98" d="M157.967,185.989l2.648,3.016a30.622,30.622,0,0,0,3.345-3.436l-3.088-2.565A26.7,26.7,0,0,1,157.967,185.989Z" transform="translate(-109.954 -135.555)" fill="#345ea6"/>
        <path id="Path_99" data-name="Path 99" d="M160.014,121.444l3.016-2.647a30.667,30.667,0,0,0-3.436-3.344l-2.566,3.087A26.609,26.609,0,0,1,160.014,121.444Z" transform="translate(-109.578 -108.469)" fill="#0f1010"/>
        <path id="Path_100" data-name="Path 100" d="M150.813,122.085,153.379,119a26.4,26.4,0,0,0-3.4-2.4l-2.051,3.452A22.42,22.42,0,0,1,150.813,122.085Z" transform="translate(-105.929 -108.927)" fill="#0a5c21"/>
        <g id="Group_4" data-name="Group 4" transform="translate(8.012 8)">
          <path id="Path_101" data-name="Path 101" d="M94.911,147.157l-3.216-.726a22.682,22.682,0,0,0-.5,3.491v.008l3.287.214v-.008A19.259,19.259,0,0,1,94.911,147.157Z" transform="translate(-91.194 -128.891)" fill="#d20029"/>
          <path id="Path_102" data-name="Path 102" d="M160.476,156.767v.009a19.187,19.187,0,0,1-.43,2.978l3.216.726a22.642,22.642,0,0,0,.5-3.49v-.009Z" transform="translate(-118.8 -133.035)" fill="#d20029"/>
          <path id="Path_103" data-name="Path 103" d="M133.717,120.87l.727-3.218a22.68,22.68,0,0,0-3.491-.5h-.008l-.214,3.3.046,0A19.324,19.324,0,0,1,133.717,120.87Z" transform="translate(-107.046 -117.151)" fill="#345ea6"/>
          <path id="Path_104" data-name="Path 104" d="M122.915,117.248a22.216,22.216,0,0,0-3.485.6l.815,3.2a19.084,19.084,0,0,1,2.973-.516Z" transform="translate(-102.515 -117.19)" fill="#d20029"/>
          <path id="Path_105" data-name="Path 105" d="M111.691,120.132a22.606,22.606,0,0,0-3.126,1.652l1.782,2.82a19.237,19.237,0,0,1,2.661-1.411Z" transform="translate(-98.159 -118.346)" fill="#345ea6"/>
          <path id="Path_106" data-name="Path 106" d="M102.251,126.447a22.7,22.7,0,0,0-2.466,2.533l2.544,2.113a19.394,19.394,0,0,1,2.1-2.164Z" transform="translate(-94.639 -120.878)" fill="#d20029"/>
          <path id="Path_107" data-name="Path 107" d="M95.272,135.475a22.434,22.434,0,0,0-1.562,3.173l3.1,1.236a19.1,19.1,0,0,1,1.333-2.7Z" transform="translate(-92.203 -124.498)" fill="#345ea6"/>
          <path id="Path_108" data-name="Path 108" d="M91.211,157.949a22.193,22.193,0,0,0,.6,3.485l3.231-.823a19.089,19.089,0,0,1-.513-2.968Z" transform="translate(-91.201 -133.386)" fill="#345ea6"/>
          <path id="Path_109" data-name="Path 109" d="M94.176,168.7a22.572,22.572,0,0,0,1.652,3.126l2.8-1.766a19.263,19.263,0,0,1-1.41-2.667Z" transform="translate(-92.39 -137.297)" fill="#d20029"/>
          <path id="Path_110" data-name="Path 110" d="M102.907,175.841l-2.5,2.193a22.706,22.706,0,0,0,2.534,2.466l2.122-2.554A19.408,19.408,0,0,1,102.907,175.841Z" transform="translate(-94.889 -140.683)" fill="#345ea6"/>
          <path id="Path_111" data-name="Path 111" d="M152.086,179.839a22.444,22.444,0,0,0,2.466-2.533l-2.543-2.113a19.337,19.337,0,0,1-2.1,2.165Z" transform="translate(-114.735 -140.423)" fill="#d20029"/>
          <path id="Path_112" data-name="Path 112" d="M159.125,170.95a22.366,22.366,0,0,0,1.562-3.172l-3.032-1.208a19,19,0,0,1-1.339,2.71Z" transform="translate(-117.304 -136.966)" fill="#345ea6"/>
          <path id="Path_113" data-name="Path 113" d="M163.591,148.871a22.294,22.294,0,0,0-.6-3.485l-3.17.807a19.069,19.069,0,0,1,.52,2.978Z" transform="translate(-118.71 -128.472)" fill="#345ea6"/>
          <path id="Path_114" data-name="Path 114" d="M160.293,137.727a22.513,22.513,0,0,0-1.652-3.126l-2.8,1.765a19.2,19.2,0,0,1,1.41,2.667Z" transform="translate(-117.116 -124.148)" fill="#d20029"/>
          <path id="Path_115" data-name="Path 115" d="M153.81,128.208a22.543,22.543,0,0,0-2.534-2.466l-2.1,2.532a19.37,19.37,0,0,1,2.17,2.1Z" transform="translate(-114.44 -120.596)" fill="#345ea6"/>
          <path id="Path_116" data-name="Path 116" d="M144.985,121.309a22.464,22.464,0,0,0-3.173-1.563l-1.223,3.068a19.085,19.085,0,0,1,2.706,1.337Z" transform="translate(-110.999 -118.191)" fill="#d20029"/>
        </g>
      </g>
      <g id="Group_7" data-name="Group 7" transform="translate(19.587 19.684)">
        <g id="Group_6" data-name="Group 6">
          <path id="Path_117" data-name="Path 117" d="M132.692,156.608a7.148,7.148,0,0,0-1.381-.6,8.232,8.232,0,0,0-3.8-.278,9.169,9.169,0,0,0-1.645.424l-.164.058a8.943,8.943,0,0,0-.872.388q-.372.189-.743.412a17.735,17.735,0,0,0-1.656,1.137c-.04-.24-.509-6.729-.541-6.966h-.553c-.032.237-.5,6.726-.541,6.966a13.427,13.427,0,0,0-3.271-1.936c-.136-.051-.27-.1-.4-.14a8.64,8.64,0,0,0-3.09-.439,7.988,7.988,0,0,0-3.189.806c-.124.062-.229.119-.31.166a.031.031,0,0,0,.027.056c.1-.031.189-.056.283-.083a8.834,8.834,0,0,1,3.189-.313,9.522,9.522,0,0,1,3.09.831,16.362,16.362,0,0,1,3.678,2.394,40.323,40.323,0,0,1-3.678,3.144c-.041.023-.08.046-.117.065a.861.861,0,0,0-1.534.3.83.83,0,0,0,.168.742,1.235,1.235,0,0,0,1.483.216c1.079-.453,2.423-1.881,4.072-3.39.137-.126.276-.253.419-.379.142.125.28.251.417.376.748.684,1.432,1.351,2.057,1.918.258.234.5.45.743.645a6.553,6.553,0,0,0,1.036.718,1.345,1.345,0,0,0,1.645-.036c.026-.022.052-.043.076-.068a.961.961,0,0,0,.168-.742.865.865,0,0,0-.645-.637.86.86,0,0,0-.888.334,3.256,3.256,0,0,1-.356-.217,12.271,12.271,0,0,1-1.036-.836c-.233-.2-.481-.428-.743-.666-.509-.462-1.067-.973-1.661-1.491a20.421,20.421,0,0,1,1.661-1.256q.364-.246.743-.473c.336-.2.682-.385,1.036-.554a10.542,10.542,0,0,1,1.645-.63,8.692,8.692,0,0,1,3.8-.235,9.55,9.55,0,0,1,1.354.319A.031.031,0,0,0,132.692,156.608Z" transform="translate(-110.517 -142.48)" fill="#0a5c21"/>
          <path id="Path_118" data-name="Path 118" d="M135.462,146.379a4.786,4.786,0,0,0-6.769,0Z" transform="translate(-117.804 -139.991)" fill="#0a5c21"/>
          <path id="Path_119" data-name="Path 119" d="M134.627,141.754a4.786,4.786,0,0,0-5.934,3.255Z" transform="translate(-117.804 -138.622)" fill="#0a5c21"/>
          <path id="Path_120" data-name="Path 120" d="M119.516,141.754a4.785,4.785,0,0,1,5.934,3.255Z" transform="translate(-114.125 -138.622)" fill="#0a5c21"/>
          <path id="Path_121" data-name="Path 121" d="M124.674,146.379a4.786,4.786,0,0,0-6.768,0Z" transform="translate(-113.479 -139.991)" fill="#0a5c21"/>
          <path id="Path_122" data-name="Path 122" d="M132.742,136.654a5.388,5.388,0,0,0-3.81,6.6Z" transform="translate(-117.826 -136.654)" fill="#0a5c21"/>
          <path id="Path_123" data-name="Path 123" d="M122.707,136.654a5.389,5.389,0,0,1,3.811,6.6Z" transform="translate(-115.404 -136.654)" fill="#0a5c21"/>
          <path id="Path_124" data-name="Path 124" d="M125.883,147.178a5.245,5.245,0,0,0-5.245,5.245Z" transform="translate(-114.575 -140.874)" fill="#0a5c21"/>
          <path id="Path_125" data-name="Path 125" d="M128.5,147.178a5.245,5.245,0,0,1,5.245,5.245Z" transform="translate(-117.727 -140.874)" fill="#0a5c21"/>
          <path id="Path_126" data-name="Path 126" d="M131.024,142.784" transform="translate(-118.739 -139.112)" fill="#0a5c21"/>
          <path id="Path_127" data-name="Path 127" d="M130.551,143.642" transform="translate(-118.549 -139.456)" fill="#0a5c21"/>
          <path id="Path_128" data-name="Path 128" d="M129.055,146.35" transform="translate(-117.95 -140.542)" fill="#0a5c21"/>
          <path id="Path_129" data-name="Path 129" d="M131.768,149" transform="translate(-119.037 -141.604)" fill="#0a5c21"/>
          <path id="Path_130" data-name="Path 130" d="M128.737,146.414" transform="translate(-117.822 -140.567)" fill="#0a5c21"/>
          <path id="Path_131" data-name="Path 131" d="M127.674,147.1" transform="translate(-117.396 -140.841)" fill="#0a5c21"/>
          <path id="Path_132" data-name="Path 132" d="M124.987,149.428" transform="translate(-116.319 -141.776)" fill="#0a5c21"/>
          <path id="Path_133" data-name="Path 133" d="M124.337,150.078" transform="translate(-116.058 -142.036)" fill="#0a5c21"/>
          <path id="Path_134" data-name="Path 134" d="M129.308,146.033" transform="translate(-118.051 -140.415)" fill="#0a5c21"/>
          <path id="Path_135" data-name="Path 135" d="M129.15,146.35" transform="translate(-117.988 -140.542)" fill="#0a5c21"/>
          <path id="Path_136" data-name="Path 136" d="M133.5,146.35" transform="translate(-119.73 -140.542)" fill="#0a5c21"/>
        </g>
      </g>
    </g>
    <g id="Group_9" data-name="Group 9" transform="translate(15.925 48.46)">
      <path id="Path_137" data-name="Path 137" d="M117.893,189.789l-3.621,6.507.256.084q.59.2,1.192.362l.17.047.922-1.672,1.761.373.193,1.919.171.026c.445.067.881.122,1.3.162l.27.027-.76-7.442Zm.636,4.29-1.114-.236c.214-.417.642-1.251.953-1.862C118.417,192.667,118.491,193.6,118.528,194.079Z" transform="translate(-108.359 -186.735)" fill="#0a5c21"/>
      <path id="Path_138" data-name="Path 138" d="M132.482,189.884l-.488,3.188c-.1.571-.18,1.127-.239,1.609-.2-.5-.423-.993-.646-1.47l-1.438-2.923-1.968.283.642,7.084.2,0c.386,0,.772-.011,1.154-.031l.229-.011-.243-2.784c-.038-.425-.1-.924-.177-1.427.184.426.371.837.53,1.179l1.368,2.864,1.248-.179.592-3.179c.086-.427.148-.923.2-1.41.055.283.11.567.164.837.049.246.1.48.135.689l.534,2.781.225-.054c.393-.093.781-.2,1.167-.305l.2-.056-1.44-6.963Z" transform="translate(-113.744 -186.661)" fill="#0a5c21"/>
      <path id="Path_139" data-name="Path 139" d="M147.619,188.713l-.713-1.254-2.144,1.22-.716-1.4,2.326-1.323-.718-1.262-3.768,2.143,3.487,6.325.189-.09q.56-.269,1.1-.563l.2-.108-1.4-2.461Z" transform="translate(-119.431 -184.691)" fill="#0a5c21"/>
      <path id="Path_140" data-name="Path 140" d="M111.434,188.257l-.1-.151a3.675,3.675,0,0,0-1.312-1.126,2.775,2.775,0,0,0-2.1-.321,1.953,1.953,0,0,0-1.182.967c-.464.857-.237,1.779.691,2.818.606.688.633.991.475,1.282a.58.58,0,0,1-.353.3,1.118,1.118,0,0,1-.835-.164,3.11,3.11,0,0,1-1.125-1.061l-.149-.25-1.038,1.084.081.143a2.626,2.626,0,0,0,.4.515,4.582,4.582,0,0,0,1.066.808,3.811,3.811,0,0,0,1.085.406,2.737,2.737,0,0,0,.513.051,2.054,2.054,0,0,0,1.866-1.105c.49-.9.31-1.769-.583-2.8-.615-.728-.737-1.014-.57-1.324a.484.484,0,0,1,.295-.235,1.012,1.012,0,0,1,.746.145,2.662,2.662,0,0,1,.942.843l.151.224Z" transform="translate(-104.402 -185.445)" fill="#0a5c21"/>
    </g>
    <path id="Path_141" data-name="Path 141" d="M129.412,128.871a18.807,18.807,0,1,0,5.508,13.3A18.682,18.682,0,0,0,129.412,128.871Zm-13.3,31.536a18.238,18.238,0,1,1,18.238-18.238A18.259,18.259,0,0,1,116.114,160.407Z" transform="translate(-85.633 -111.641)" fill="#0a5c21"/>
  </g>
</svg>
